<svg width="24" height="24" viewBox="0 0 24 24" fill="none" xmlns="http://www.w3.org/2000/svg">
<path d="M11.8915 10.555L11.8607 10.5859H11.5228L11.492 10.6169H11.2462L11.2155 10.6478H11.0312L11.0004 10.6788H10.8775L10.8468 10.7097H10.6932L10.6625 10.7406H10.5703L10.5396 10.7716H10.4167L10.3859 10.8025H10.2938L10.263 10.8335H10.2016L10.1709 10.8644H10.0787L10.048 10.8954H9.98652L9.9558 10.9263H9.89435L9.86362 10.9572H9.80217L9.77145 10.9882H9.71L9.67927 11.0191H9.61782L9.5871 11.0501H9.52565L9.49493 11.081H9.4642L9.43348 11.112H9.37203L9.3413 11.1429H9.31058L9.27985 11.1738H9.2184L9.18768 11.2048H9.15695L9.12623 11.2357H9.0955L9.06478 11.2667H9.03405L9.00333 11.2976H8.9726L8.94188 11.3286H8.91116L8.88043 11.3595H8.84971L8.81898 11.3904H8.78826L8.75753 11.4214H8.72681L8.69608 11.4523H8.66536L8.63463 11.4833H8.60391L8.54246 11.5451H8.51173L8.48101 11.5761H8.45028L8.38883 11.638H8.35811L8.32738 11.6689H8.29666L8.23521 11.7308H8.20449L8.17376 11.7617H8.14304L8.08159 11.8236H8.05086L7.98941 11.8855H7.95869L7.86651 11.9783H7.83579L7.77434 12.0402H7.74361L7.65144 12.133H7.62071L7.49782 12.2568H7.46709L7.34419 12.3806H7.31347L7.12912 12.5662H7.09839L6.57607 13.0923V13.1232L6.42245 13.2779V13.3088L6.29955 13.4326V13.4636L6.20737 13.5564V13.5873L6.1152 13.6802V13.7111L6.05375 13.773V13.8039L5.9923 13.8658V13.8967L5.93085 13.9586V13.9896L5.8694 14.0515V14.0824L5.80795 14.1443V14.1752L5.77723 14.2062V14.2371L5.71578 14.299V14.3299L5.68505 14.3609V14.3918L5.65433 14.4228V14.4537L5.59288 14.5156V14.5465L5.56215 14.5775V14.6084L5.53143 14.6394V14.6703L5.50071 14.7012V14.7322L5.46998 14.7631V14.7941L5.43926 14.825V14.856L5.40853 14.8869V14.9178L5.37781 14.9488V14.9797L5.34708 15.0107V15.0726L5.31636 15.1035V15.1344L5.28563 15.1654V15.1963L5.25491 15.2273V15.2891L5.22418 15.3201V15.351L5.19346 15.382V15.4439L5.16273 15.4748V15.5057L5.13201 15.5367V15.5986L5.10128 15.6295V15.6914L5.07056 15.7223V15.7842L5.03983 15.8152V15.877L5.00911 15.908V15.9699L4.97838 16.0008V16.0936L4.94766 16.1246V16.1865L4.91693 16.2174V16.3412L4.88621 16.3721V16.4649L4.85548 16.4959V16.5887L4.82476 16.6197V16.7434L4.79404 16.7744V16.9291L4.76331 16.96V17.1147L4.73259 17.1457V17.3932L4.70186 17.4242V22.6534L4.73259 22.6843V22.7772L4.76331 22.8081V22.839L4.79404 22.87V22.9009L4.82476 22.9319V22.9628L4.88621 23.0247H4.91693L4.94766 23.0556H4.97838L5.00911 23.0866H5.43926L5.46998 23.0556H5.6236L5.65433 23.0247H5.7465L5.77723 22.9937H5.83868L5.8694 22.9628H5.93085L5.96158 22.9319H6.02303L6.05375 22.9009H6.08448L6.1152 22.87H6.14593L6.17665 22.839H6.20737L6.2381 22.8081H6.26882L6.29955 22.7772H6.33027L6.361 22.7462H6.39172L6.45317 22.6843H6.4839L6.54535 22.6224H6.57607L6.63752 22.5606H6.66825L6.97549 22.2511V22.2202L7.09839 22.0964V22.0655L7.15984 22.0036V21.9727L7.22129 21.9108V21.8798L7.28274 21.8179V21.787L7.31347 21.7561V21.7251L7.34419 21.6942V21.6632L7.37492 21.6323V21.6013L7.40564 21.5704V21.5395L7.43637 21.5085V21.4776L7.46709 21.4466V21.3848L7.49782 21.3538V21.2919L7.52854 21.261V21.1991L7.55926 21.1682V21.1063L7.58999 21.0753V20.9825L7.62071 20.9516V20.7659L7.65144 20.735V17.6717L7.68216 17.6408V17.4242L7.71289 17.3932V17.2385L7.74361 17.2076V17.1147L7.77434 17.0838V16.991L7.80506 16.96V16.8672L7.83579 16.8363V16.7744L7.86651 16.7434V16.6815L7.89724 16.6506V16.5887L7.92796 16.5578V16.5268L7.95869 16.4959V16.434L7.98941 16.4031V16.3721L8.02014 16.3412V16.3102L8.05086 16.2793V16.2484L8.08159 16.2174V16.1865L8.11231 16.1555V16.1246L8.14304 16.0936V16.0627L8.17376 16.0318V16.0008L8.20449 15.9699V15.9389L8.23521 15.908V15.877L8.29666 15.8152V15.7842L8.35811 15.7223V15.6914L8.41956 15.6295V15.5986L8.48101 15.5367V15.5057L8.57318 15.4129V15.382L8.69608 15.2582V15.2273L9.15695 14.7631H9.18768L9.3413 14.6084H9.37203L9.4642 14.5156H9.49493L9.5871 14.4228H9.61782L9.67927 14.3609H9.71L9.74072 14.3299H9.77145L9.8329 14.2681H9.86362L9.89435 14.2371H9.92507L9.9558 14.2062H9.98652L10.048 14.1443H10.0787L10.1094 14.1133H10.1401L10.1709 14.0824H10.2016L10.2323 14.0515H10.263L10.2938 14.0205H10.3552L10.3859 13.9896H10.4167L10.4474 13.9586H10.5088L10.5396 13.9277H10.5703L10.601 13.8967H10.6625L10.6932 13.8658H10.7546L10.7854 13.8349H10.8468L10.8775 13.8039H10.9697L11.0004 13.773H11.0926L11.1233 13.742H11.2155L11.2462 13.7111H11.3691L11.3999 13.6802H11.5842L11.6149 13.6492H11.8607L11.8915 13.6183H16.5309L16.5616 13.5873H16.7152L16.746 13.5564H16.8689L16.8996 13.5254H16.9918L17.0225 13.4945H17.0839L17.1147 13.4636H17.1761L17.2068 13.4326H17.2376L17.2683 13.4017H17.3297L17.3605 13.3707H17.3912L17.4219 13.3398H17.4526L17.4834 13.3088H17.5141L17.5448 13.2779H17.5755L17.6063 13.247H17.637L17.6984 13.1851H17.7292L17.7599 13.1541H17.7906L17.8521 13.0923H17.8828L17.975 12.9994H18.0057L18.4666 12.5353V12.5044L18.5587 12.4115V12.3806L18.6202 12.3187V12.2878L18.6816 12.2259V12.1949L18.7431 12.133V12.1021L18.7738 12.0712V12.0402L18.8045 12.0093V11.9783L18.8353 11.9474V11.9165L18.866 11.8855V11.8546L18.8967 11.8236V11.7927L18.9274 11.7617V11.6999L18.9582 11.6689V11.638L18.9889 11.607V11.5451L19.0196 11.5142V11.4523L19.0503 11.4214V11.3595L19.0811 11.3286V11.2357L19.1118 11.2048V10.9263L19.0811 10.8954V10.8335L19.0503 10.8025V10.7716L19.0196 10.7406V10.7097L18.8967 10.5859H18.866L18.8353 10.555H11.8915ZM13.2741 2.78851L13.2433 2.81946H10.5396L10.5088 2.8504H10.2323L10.2016 2.88134H10.0172L9.98652 2.91228H9.86362L9.8329 2.94322H9.67927L9.64855 2.97417H9.55637L9.52565 3.00511H9.43348L9.40275 3.03605H9.31058L9.27985 3.06699H9.18768L9.15695 3.09793H9.0955L9.06478 3.12888H8.9726L8.94188 3.15982H8.88043L8.84971 3.19076H8.78826L8.75753 3.2217H8.72681L8.69608 3.25265H8.63463L8.60391 3.28359H8.54246L8.51173 3.31453H8.48101L8.45028 3.34547H8.38883L8.35811 3.37641H8.32738L8.29666 3.40736H8.26593L8.23521 3.4383H8.17376L8.14304 3.46924H8.11231L8.08159 3.50018H8.05086L8.02014 3.53113H7.98941L7.95869 3.56207H7.92796L7.89724 3.59301H7.86651L7.80506 3.65489H7.77434L7.74361 3.68584H7.71289L7.68216 3.71678H7.65144L7.58999 3.77866H7.55926L7.49782 3.84055H7.46709L7.40564 3.90243H7.37492L7.31347 3.96432H7.28274L7.22129 4.0262H7.19057L7.12912 4.08808H7.09839L7.00622 4.18091H6.97549L6.88332 4.27374H6.8526L6.7297 4.39751H6.69897L6.54535 4.55222H6.51462L5.83868 5.23294V5.26389L5.68505 5.4186V5.44954L5.56215 5.57331V5.60425L5.46998 5.69708V5.72802L5.40853 5.7899V5.82085L5.31636 5.91367V5.94461L5.25491 6.0065V6.03744L5.19346 6.09932V6.13027L5.16273 6.16121V6.19215L5.10128 6.25404V6.28498L5.03983 6.34686V6.3778L5.00911 6.40875V6.43969L4.97838 6.47063V6.50157L4.91693 6.56346V6.5944L4.88621 6.62534V6.65628L4.85548 6.68723V6.71817L4.82476 6.74911V6.78005L4.79404 6.81099V6.84194L4.76331 6.87288V6.90382L4.73259 6.93476V6.96571L4.70186 6.99665V7.02759L4.67114 7.05853V7.12042L4.64041 7.15136V7.1823L4.60969 7.21324V7.24418L4.57896 7.27513V7.33701L4.54824 7.36795V7.3989L4.51751 7.42984V7.49172L4.48679 7.52266V7.55361L4.45606 7.58455V7.64643L4.42534 7.67737V7.73926L4.39461 7.7702V7.83209L4.36389 7.86303V7.92491L4.33316 7.95585V8.01774L4.30244 8.04868V8.14151L4.27171 8.17245V8.23433L4.24099 8.26528V8.38904L4.21026 8.41999V8.51281L4.17954 8.54376V8.66752L4.14881 8.69847V8.85318L4.11809 8.88412V9.06977L4.08737 9.10071V9.31731L4.05664 9.34825V11.1738L4.08737 11.2048V11.2667L4.11809 11.2976V11.3595L4.27171 11.5142H4.30244L4.33316 11.5451H4.79404L4.82476 11.5142H4.94766L4.97838 11.4833H5.07056L5.10128 11.4523H5.19346L5.22418 11.4214H5.28563L5.31636 11.3904H5.34708L5.37781 11.3595H5.43926L5.46998 11.3286H5.50071L5.53143 11.2976H5.56215L5.59288 11.2667H5.6236L5.65433 11.2357H5.68505L5.7465 11.1738H5.77723L5.83868 11.112H5.8694L5.93085 11.0501H5.96158L6.361 10.6478V10.6169L6.45317 10.5241V10.4931L6.51462 10.4312V10.4003L6.57607 10.3384V10.3075L6.6068 10.2765V10.2456L6.63752 10.2146V10.1837L6.66825 10.1527V10.1218L6.69897 10.0909V10.0599L6.7297 10.029V9.99804L6.76042 9.96709V9.90521L6.79115 9.87427V9.84333L6.82187 9.81238V9.7505L6.8526 9.71956V9.62673L6.88332 9.59579V9.50296L6.91404 9.47202V9.31731L6.94477 9.28637V9.1626L6.97549 9.13166V9.06977L7.00622 9.03883V8.946L7.03694 8.91506V8.85318L7.06767 8.82223V8.76035L7.09839 8.72941V8.66752L7.12912 8.63658V8.60564L7.15984 8.5747V8.51281L7.19057 8.48187V8.45093L7.22129 8.41999V8.38904L7.25202 8.3581V8.32716L7.28274 8.29622V8.26528L7.31347 8.23433V8.20339L7.34419 8.17245V8.14151L7.37492 8.11057V8.07962L7.40564 8.04868V8.01774L7.46709 7.95585V7.92491L7.52854 7.86303V7.83209L7.55926 7.80114V7.7702L7.65144 7.67737V7.64643L7.74361 7.55361V7.52266L7.89724 7.36795V7.33701L8.26593 6.96571H8.29666L8.45028 6.81099H8.48101L8.57318 6.71817H8.60391L8.66536 6.65628H8.69608L8.75753 6.5944H8.78826L8.84971 6.53251H8.88043L8.94188 6.47063H8.9726L9.00333 6.43969H9.03405L9.06478 6.40875H9.0955L9.12623 6.3778H9.15695L9.18768 6.34686H9.2184L9.24913 6.31592H9.27985L9.31058 6.28498H9.3413L9.37203 6.25404H9.40275L9.43348 6.22309H9.49493L9.52565 6.19215H9.5871L9.61782 6.16121H9.64855L9.67927 6.13027H9.74072L9.77145 6.09932H9.86362L9.89435 6.06838H9.9558L9.98652 6.03744H10.0787L10.1094 6.0065H10.2323L10.263 5.97556H10.4167L10.4474 5.94461H10.6625L10.6932 5.91367H19.0196L19.0503 5.88273H19.3883L19.419 5.85179H19.5419L19.5727 5.82085H19.6648L19.6956 5.7899H19.7877L19.8184 5.75896H19.8799L19.9106 5.72802H19.9721L20.0028 5.69708H20.0335L20.0642 5.66613H20.1257L20.1564 5.63519H20.1871L20.2179 5.60425H20.2486L20.2793 5.57331H20.31L20.3715 5.51142H20.4022L20.4329 5.48048H20.4637L20.5558 5.38765H20.5866L20.6787 5.29483H20.7095L21.1089 4.89258V4.86164L21.1703 4.79975V4.76881L21.2318 4.70693V4.67599L21.2932 4.6141V4.58316L21.3547 4.52127V4.49033L21.3854 4.45939V4.42845L21.4161 4.39751V4.36656L21.4469 4.33562V4.30468L21.4776 4.27374V4.24279L21.5083 4.21185V4.14997L21.539 4.11903V4.08808L21.5698 4.05714V3.99526L21.6005 3.96432V3.90243L21.6312 3.87149V3.77866L21.6619 3.74772V3.62395L21.6927 3.59301V3.19076L21.6619 3.15982V3.12888L21.6312 3.09793V3.06699L21.6005 3.03605V3.00511L21.5083 2.91228H21.4776L21.4161 2.8504H21.3854L21.3547 2.81946H21.2318L21.2011 2.78851H13.5199L13.4891 2.81946H13.3048L13.2741 2.78851Z" fill="#F2E3CF"/>
</svg>
