<svg width="24" height="24" viewBox="0 0 24 24" fill="none" xmlns="http://www.w3.org/2000/svg">
<path d="M8.14244 4.28571C7.63591 4.28571 7.13434 4.38547 6.66637 4.57931C6.1984 4.77315 5.7732 5.05727 5.41503 5.41544C5.05686 5.77361 4.77274 6.19881 4.5789 6.66678C4.38506 7.13475 4.2853 7.63632 4.2853 8.14285C4.2853 8.64938 4.38506 9.15094 4.5789 9.61891C4.77274 10.0869 5.05686 10.5121 5.41503 10.8703C5.7732 11.2284 6.1984 11.5125 6.66637 11.7064C7.13434 11.9002 7.63591 12 8.14244 12C9.16542 12 10.1465 11.5936 10.8699 10.8703C11.5932 10.1469 11.9996 9.16583 11.9996 8.14285C11.9996 7.11987 11.5932 6.13879 10.8699 5.41544C10.1465 4.69208 9.16542 4.28571 8.14244 4.28571ZM5.57101 8.14285C5.57101 7.80516 5.63752 7.47079 5.76675 7.15881C5.89598 6.84683 6.08539 6.56335 6.32416 6.32457C6.56294 6.08579 6.84642 5.89638 7.1584 5.76716C7.47038 5.63793 7.80475 5.57142 8.14244 5.57142C8.48012 5.57142 8.8145 5.63793 9.12648 5.76716C9.43846 5.89638 9.72193 6.08579 9.96071 6.32457C10.1995 6.56335 10.3889 6.84683 10.5181 7.15881C10.6474 7.47079 10.7139 7.80516 10.7139 8.14285C10.7139 8.82483 10.443 9.47889 9.96071 9.96112C9.47848 10.4434 8.82442 10.7143 8.14244 10.7143C7.46045 10.7143 6.8064 10.4434 6.32416 9.96112C5.84193 9.47889 5.57101 8.82483 5.57101 8.14285ZM17.1424 5.99999C16.3468 5.99999 15.5837 6.31606 15.0211 6.87867C14.4585 7.44128 14.1424 8.20434 14.1424 8.99999C14.1424 9.79564 14.4585 10.5587 15.0211 11.1213C15.5837 11.6839 16.3468 12 17.1424 12C17.9381 12 18.7012 11.6839 19.2638 11.1213C19.8264 10.5587 20.1424 9.79564 20.1424 8.99999C20.1424 8.20434 19.8264 7.44128 19.2638 6.87867C18.7012 6.31606 17.9381 5.99999 17.1424 5.99999ZM15.4282 8.99999C15.4282 8.54533 15.6088 8.1093 15.9303 7.78781C16.2517 7.46632 16.6878 7.28571 17.1424 7.28571C17.5971 7.28571 18.0331 7.46632 18.3546 7.78781C18.6761 8.1093 18.8567 8.54533 18.8567 8.99999C18.8567 9.45465 18.6761 9.89068 18.3546 10.2122C18.0331 10.5337 17.5971 10.7143 17.1424 10.7143C16.6878 10.7143 16.2517 10.5337 15.9303 10.2122C15.6088 9.89068 15.4282 9.45465 15.4282 8.99999ZM1.71387 15.6428C1.71387 15.1314 1.91706 14.6408 2.27873 14.2791C2.64041 13.9175 3.13095 13.7143 3.64244 13.7143H12.6424C13.1539 13.7143 13.6445 13.9175 14.0061 14.2791C14.3678 14.6408 14.571 15.1314 14.571 15.6428V16.098C14.5704 16.1674 14.5655 16.2366 14.5564 16.3054C14.5371 16.4822 14.5056 16.6575 14.4622 16.83C14.3202 17.3928 14.0675 17.9216 13.719 18.3857C12.8499 19.5454 11.1922 20.5714 8.14244 20.5714C5.09272 20.5714 3.43501 19.5454 2.56587 18.3857C2.21764 17.9215 1.9653 17.3927 1.82358 16.83C1.76749 16.6059 1.73163 16.3773 1.71644 16.1468L1.71387 16.098V15.6428ZM2.99958 16.0671V16.0826L3.0073 16.1683C3.01587 16.2489 3.03301 16.3697 3.07072 16.518C3.17066 16.9145 3.34839 17.2871 3.59358 17.6143C4.1713 18.3831 5.40644 19.2857 8.14244 19.2857C10.8784 19.2857 12.1136 18.3831 12.6904 17.6143C12.9904 17.2148 13.1396 16.8154 13.2133 16.518C13.2494 16.3752 13.2732 16.2295 13.2844 16.0826L13.2853 16.0671V15.6428C13.2853 15.4724 13.2176 15.3088 13.097 15.1883C12.9764 15.0677 12.8129 15 12.6424 15H3.64244C3.47194 15 3.30843 15.0677 3.18787 15.1883C3.06731 15.3088 2.99958 15.4724 2.99958 15.6428V16.0671ZM14.6567 18.5314C15.3193 18.7346 16.137 18.8571 17.1407 18.8571C19.515 18.8571 20.8419 18.1748 21.5627 17.352C21.8505 17.0261 22.064 16.6415 22.1884 16.2249C22.2371 16.0565 22.2684 15.8836 22.2819 15.7088L22.2836 15.6686V15.6428C22.2836 15.1314 22.0804 14.6408 21.7187 14.2791C21.357 13.9175 20.8665 13.7143 20.355 13.7143H14.6516C14.9893 14.0666 15.2362 14.508 15.3527 15H20.3559C20.5249 15 20.6871 15.0665 20.8074 15.1852C20.9277 15.304 20.9965 15.4653 20.9987 15.6343L20.9944 15.6737C20.9859 15.7383 20.9724 15.8022 20.9542 15.8649C20.8818 16.1018 20.759 16.3202 20.5942 16.5051C20.1904 16.968 19.2682 17.5714 17.1407 17.5714C16.3342 17.5714 15.7007 17.4848 15.2027 17.3511C15.0714 17.7661 14.8879 18.1627 14.6567 18.5314Z" fill="#F2E3CF"/>
</svg>
