<svg width="254" height="253" viewBox="0 0 254 253" fill="none" xmlns="http://www.w3.org/2000/svg">
<mask id="mask0_854_14280" style="mask-type:alpha" maskUnits="userSpaceOnUse" x="0" y="0" width="254" height="253">
<ellipse cx="126.606" cy="126.151" rx="126.606" ry="126.151" fill="#D9D9D9"/>
</mask>
<g mask="url(#mask0_854_14280)">
<path fill-rule="evenodd" clip-rule="evenodd" d="M24.3728 351.818C59.7978 357.205 95.8654 357.476 131.585 355.52C145.721 354.46 159.901 354.269 174.026 355.624C182.372 356.245 218.968 359.046 221.958 351.562C220.076 311.708 216.264 271.515 204.572 233.186C199.764 219.576 195.634 208.28 186.249 197.018C183.292 193.943 176.913 187.494 173.258 185.39C170.092 183.568 168.768 184.218 166.95 181.141C165.143 177.741 163.81 172.064 161.245 169.665C158.633 167.223 154.762 168.096 149.964 168.883C150.845 156.957 145.347 153.92 137.772 151.652C124.457 146.564 111.307 149.12 107.955 165.348C101.742 165.348 98.2513 168.025 94.4779 170.597C92.9354 171.649 94.0084 174.328 92.1659 175.155C88.7571 176.37 82.7332 176.072 79.451 177.567C64.5256 184.368 51.2321 194.229 42.5019 208.631C22.9299 239.38 9.48544 304.152 11.8119 340.597C10.7926 342.197 12.2022 344.492 12.5604 346.213C13.0127 347.71 14.4772 348.705 16.0056 348.535C18.1385 350.831 21.4375 351.343 24.3728 351.818Z" fill="white"/>
<path fill-rule="evenodd" clip-rule="evenodd" d="M171.002 184.489C170.785 184.367 170.976 184.056 171.195 184.159C181.701 189.093 189.76 197.75 195.431 207.753C201.304 218.11 204.65 229.869 207.536 241.362L207.64 241.778C210.717 254.073 213.333 266.495 215.688 278.947C218.073 291.557 219.988 304.246 221.528 316.986C222.29 323.286 222.969 329.597 223.499 335.92C223.764 339.08 224.004 342.242 224.22 345.406C224.307 346.671 224.388 347.937 224.458 349.203L224.508 350.153C224.551 351.015 224.653 351.879 224.441 352.729C224.257 353.461 223.87 354.125 223.529 354.798C222.855 356.127 221.007 355.908 220.28 354.798L220.069 354.474C219.588 353.729 219.187 353.036 219.036 352.108C218.89 351.21 218.885 350.269 218.819 349.362C218.698 347.692 218.596 346.021 218.479 344.352C218.233 340.836 217.956 337.324 217.65 333.813C217.045 326.884 216.397 319.96 215.6 313.05C214.184 300.768 212.407 288.52 210.312 276.336C208.266 264.434 205.678 252.653 202.979 240.886L202.699 239.669C197.973 219.126 190.69 195.467 171.002 184.489ZM59.1002 264.932C59.1774 264.727 59.5099 264.679 59.566 264.932C60.2737 268.122 60.3437 271.408 60.4519 274.674C60.5584 277.896 60.5541 281.132 60.5072 284.356C60.3342 296.204 60.0093 308.042 59.7284 319.888C59.588 325.813 59.4562 331.74 59.355 337.666C59.3168 339.889 59.2847 342.111 59.258 344.334L59.2253 347.266C59.209 348.562 59.175 349.842 59.0172 351.137C58.9131 351.988 58.6913 352.801 58.2216 353.531C57.8883 354.049 57.4133 354.312 56.9503 354.664L56.8637 354.731C56.2731 355.198 55.6511 355.202 55.0662 354.731L54.8963 354.597C54.3376 354.159 53.8548 353.817 53.4981 353.126C53.0019 352.164 52.9224 351.119 52.8381 350.059C52.7101 348.452 52.795 346.821 52.8115 345.209C52.8446 341.976 52.8894 338.744 52.946 335.511C53.154 323.655 53.5651 311.797 54.3143 299.963C54.6672 294.389 55.1458 288.796 55.7877 283.245L55.91 282.204C56.1047 280.571 56.2823 278.908 56.4824 277.24C53.4951 275.137 50.8692 272.584 48.63 269.689C48.4652 269.476 48.7366 269.177 48.9356 269.383C51.2236 271.755 53.8471 273.646 56.7514 275.132C57.2273 271.641 57.8816 268.168 59.1002 264.932ZM109.007 159.251C109.048 159.22 109.112 159.206 109.151 159.251C109.793 160.001 109.663 161.147 109.684 162.097L109.686 162.185C109.732 163.574 109.741 164.958 109.736 166.347L109.722 170.77V170.77C109.72 171.378 109.671 172.011 109.702 172.623L109.718 172.859V172.859C110.055 173.205 110.212 173.705 110.098 174.207C110.077 174.851 109.741 175.388 109.25 175.726L110.301 177.219V177.219L111.354 178.711C113.523 181.791 115.716 184.844 118.001 187.839C120.331 190.893 122.817 193.831 125.419 196.657C126.69 198.038 127.982 199.399 129.305 200.73C129.842 201.271 130.393 201.799 130.938 202.332L131.48 202.868C131.8 203.189 132.203 203.506 132.416 203.912C132.541 204.152 132.569 204.743 132.614 204.84C133.015 205.724 132.331 207.132 131.193 206.691L131.244 206.657C131.452 206.512 131.319 206.51 130.846 206.651C130.548 206.65 130.268 206.581 130.007 206.445L129.929 206.402C129.561 206.215 129.233 205.852 128.934 205.563L128.86 205.492C128.176 204.851 127.524 204.171 126.869 203.5C125.502 202.102 124.165 200.674 122.871 199.207C120.29 196.281 117.843 193.237 115.525 190.098C113.165 186.901 110.97 183.539 109.083 180.04C108.367 178.712 107.711 177.358 107.081 175.989C105.856 175.595 105.572 174.291 105.657 172.822C105.205 171.768 104.798 170.692 104.557 169.593C104.524 169.443 104.718 169.301 104.834 169.432C105.225 169.878 105.588 170.352 105.937 170.839C106.147 169.809 106.414 168.861 106.539 168.256L107.082 165.588V165.588C104.021 165.429 100.668 166.687 98.558 168.891C98.4446 169.465 98.0035 169.876 97.5734 170.412C97.0821 171.025 96.6534 171.714 96.3337 172.433C95.6246 174.029 96.0249 176.379 94.6487 177.55C94.5053 177.671 94.3451 177.756 94.1796 177.809C94.8326 181.014 94.5363 184.546 94.5221 187.798L94.5216 188.084C94.5248 191.724 94.4033 195.367 94.2629 199.003L94.12 202.602C93.9348 207.403 93.8146 212.205 94.2805 216.979C96.4077 215.093 98.6073 213.293 100.883 211.578C102.379 210.45 103.905 209.362 105.458 208.315L106.721 207.47C108.234 206.455 109.783 205.41 111.44 204.682C113.606 203.731 115.667 204.058 117.758 205.034C119.841 206.005 121.862 207.134 123.905 208.187C125.983 209.258 128.066 210.319 130.147 211.384C131.526 212.089 133.546 212.726 134.557 214.024C134.621 213.737 134.696 213.45 134.784 213.165C134.684 212.73 134.723 212.26 134.967 211.811C138.364 205.561 141.508 199.162 144.629 192.77C146.209 189.536 147.711 186.263 149.294 183.03L150.833 179.882C151.09 179.357 151.348 178.833 151.608 178.31C151.996 177.526 152.4 176.75 152.793 175.969C152.959 175.639 153.167 175.311 153.328 174.977L153.405 174.81C153.409 174.801 153.781 173.628 153.493 173.739L153.469 173.751C153.322 173.835 153.204 173.65 153.299 173.531C153.706 173.027 154.274 173.474 154.506 173.941C155.146 175.225 153.973 177.241 153.522 178.471L153.497 178.539C152.096 182.508 150.511 186.402 148.886 190.283C145.771 197.723 142.424 205.049 139.085 212.388L139.045 212.514V212.514C139.757 211.968 140.518 211.472 141.169 210.989C142.811 209.771 144.501 208.613 146.189 207.459C149.284 205.342 152.463 203.364 155.694 201.465L156.341 201.086C157.956 200.145 159.555 199.381 161.471 199.664C163.251 199.926 164.906 200.884 166.514 201.661L166.68 201.741L171.649 204.106C171.117 201.985 170.542 199.875 169.942 197.772C168.772 193.671 167.484 189.605 166.088 185.574C164.784 181.809 163.374 178.084 161.882 174.389L161.433 173.28C160.825 171.759 160.221 170.1 158.483 169.632C156.746 169.163 154.754 169.858 153.166 168.867C153.022 168.777 153.04 168.539 153.215 168.495L154.194 168.247C156.034 167.789 158.189 167.329 159.929 167.774C161.821 168.259 163.387 169.849 164.305 171.502C165.326 173.341 166.045 175.399 166.82 177.36L166.943 177.669C167.832 179.888 168.687 182.12 169.505 184.366C171.142 188.857 172.631 193.401 173.979 197.986C174.629 200.196 175.245 202.416 175.838 204.642C176.008 205.282 176.289 206.058 176.519 206.868C176.784 207.126 177.034 207.413 177.268 207.742C177.657 208.286 177.378 208.925 176.894 209.251C176.875 209.808 176.752 210.332 176.456 210.781C175.302 212.534 172.252 212.083 172.376 209.725C172.395 209.365 172.535 209.02 172.748 208.729L172.742 208.682V208.682L172.718 208.595V208.595C172.188 208.341 171.657 208.058 171.096 207.781L165.881 205.201V205.201C164.371 204.454 162.697 203.299 161.017 203.015C159.451 202.749 157.799 203.917 156.454 204.622L156.367 204.667C153.114 206.336 149.886 208.06 146.67 209.799C145.1 210.648 143.551 211.532 141.987 212.391C140.68 213.109 139.269 214.14 137.799 214.546C137.171 215.034 136.426 214.969 135.826 214.599C136.1 216.297 136.083 218.04 136.167 219.776C136.281 222.097 136.298 224.424 136.335 226.748L136.35 227.62C136.449 232.758 136.502 237.897 136.521 243.036C136.591 261.335 136.389 279.64 136.342 297.94C136.318 307.134 136.136 316.336 135.897 325.527C135.796 329.421 135.585 333.311 135.356 337.2L135.23 339.321C134.964 343.796 134.807 348.321 133.98 352.736C133.872 353.311 132.898 353.326 132.803 352.736C132.041 348.005 131.999 343.17 131.853 338.384L131.822 337.427C131.646 332.288 131.562 327.153 131.58 322.011C131.645 303.704 132.12 285.409 132.509 267.107C132.705 257.912 132.836 248.712 133.14 239.52C133.292 234.92 133.464 230.324 133.668 225.726C133.759 223.673 133.846 221.623 133.983 219.573L134.044 218.695C134.086 218.121 134.121 217.555 134.162 216.995C132.312 217.671 130.62 216.419 128.956 215.561C127.037 214.574 125.12 213.584 123.201 212.598L121.281 211.614V211.614L117.437 209.65C115.707 208.766 114.373 207.886 112.528 208.923C105.878 212.658 99.7676 217.628 94.2301 222.843C93.1682 223.843 90.9244 223.574 90.6554 221.898C89.5065 214.738 90.2053 207.474 90.7919 200.292L91.0081 197.625C91.2702 194.441 91.5555 191.256 91.9358 188.084C92.1059 186.665 92.2753 185.248 92.4627 183.831L92.6069 182.77C92.8412 181.091 92.9942 179.423 93.4936 177.813C93.3361 177.762 93.1845 177.678 93.0489 177.55C91.5473 176.123 92.2713 173.648 92.9565 171.951C93.633 170.277 94.6647 168.815 95.9568 167.557C96.2385 167.282 96.6358 167.106 97.0349 167.096C100.168 165.019 103.604 163.982 107.181 165.116C107.281 164.635 107.384 164.155 107.492 163.676L107.602 163.197C107.88 162.009 107.983 160.046 109.007 159.251ZM141.113 346.899C142.085 346.631 143.15 346.913 143.862 347.626C144.574 348.339 144.856 349.405 144.588 350.378C144.454 350.857 144.212 351.273 143.862 351.626C143.535 351.952 143.153 352.184 142.717 352.323L142.615 352.354L142.456 352.42C141.969 352.551 141.482 352.551 140.995 352.42C140.529 352.289 140.124 352.053 139.781 351.712C139.44 351.368 139.205 350.964 139.074 350.497C138.943 350.009 138.943 349.521 139.074 349.033L139.14 348.874V348.874C139.274 348.395 139.516 347.979 139.867 347.626C140.219 347.276 140.635 347.033 141.113 346.899ZM198.834 249.918C198.994 249.735 199.253 249.97 199.153 250.165C197.639 253.137 195.952 256.087 194.293 258.984C194.426 259.786 194.558 260.583 194.709 261.359C195.355 264.667 196.147 267.915 196.663 271.255C198.517 283.259 199.48 295.394 200.307 307.506C201.135 319.661 201.241 331.822 201.366 344.002C201.377 345.057 200.565 346.284 199.479 346.483C198.981 346.574 198.609 346.556 198.112 346.483C196.981 346.316 196.274 345.019 196.225 344.002C195.901 337.195 195.465 330.397 194.959 323.6C194.063 311.551 193.516 299.471 192.792 287.409L192.537 283.194C192.264 278.626 192.014 274.055 191.932 269.48C191.878 266.449 192.04 263.42 191.94 260.392C191.848 257.598 191.565 254.559 192.181 251.813C192.204 251.71 192.366 251.684 192.413 251.782C193.053 253.131 193.458 254.597 193.771 256.093C195.42 254.005 197.099 251.912 198.834 249.918ZM90.8066 176.092C91.0382 176.075 91.0289 176.423 90.8066 176.449C87.5701 176.825 84.4435 178.143 81.3876 179.264L81.1258 179.36C78.0384 180.481 75.0283 181.785 72.1316 183.34C66.468 186.379 61.2672 190.298 56.669 194.785C38.3104 212.694 29.9439 238.521 23.8134 262.791C20.4071 276.275 17.9849 289.987 16.4149 303.805C15.6386 310.638 15.0897 317.498 14.7698 324.368C14.606 327.889 14.5027 331.413 14.4596 334.938C14.4373 336.743 14.4308 338.549 14.433 340.354C14.4341 341.182 14.5816 342.224 14.3606 343.027C14.1556 343.771 13.5775 344.426 13.1499 345.046C12.6431 345.782 11.7323 345.743 11.2185 345.046L11.029 344.793C10.481 344.065 9.94477 343.369 9.86649 342.418C9.7827 341.398 9.84181 340.347 9.83802 339.323C9.82934 337.259 9.85483 335.196 9.89604 333.133C9.97549 329.178 10.1311 325.226 10.3624 321.277C10.8321 313.265 11.6051 305.269 12.712 297.319C14.6795 283.189 17.6286 269.194 21.4915 255.462C25.1358 242.507 29.4531 229.591 35.6035 217.591C41.314 206.45 48.8055 196.085 58.6907 188.299C63.2876 184.678 68.2918 181.66 73.6869 179.388C76.408 178.242 79.2654 177.306 82.1714 176.773C85.0451 176.245 87.9063 176.319 90.8066 176.092ZM141.67 324.001C142.184 323.997 142.756 324.11 143.196 324.394L143.785 324.85V324.85C143.944 325.055 144.103 325.26 144.261 325.467C144.629 325.947 144.678 326.723 144.601 327.295C144.584 327.677 144.47 328.032 144.261 328.362L143.813 328.942V328.942C143.382 329.294 143.023 329.545 142.502 329.714C142.229 329.802 141.967 329.821 141.705 329.807L141.618 329.802L141.67 329.809L141.579 329.798V329.798C141.494 329.791 141.408 329.782 141.322 329.77C141.264 329.763 141.206 329.758 141.147 329.75C141.091 329.746 141.037 329.744 140.98 329.749C140.318 329.811 139.651 329.435 139.181 329.003C138.757 328.613 138.377 327.787 138.436 327.201L138.461 326.957C138.506 326.544 138.542 326.381 138.717 325.967C138.887 325.563 139.124 325.207 139.447 324.907C140.065 324.331 140.822 324.007 141.67 324.001ZM139.619 293.791C140.499 292.831 142.009 292.76 143.1 293.341C143.366 293.482 143.61 293.71 143.844 293.899C144.434 294.377 144.666 295.239 144.699 295.965C144.731 296.683 144.353 297.536 143.844 298.032L143.721 298.151V298.151C143.417 298.447 142.981 298.705 142.556 298.783C141.87 298.909 141.294 298.905 140.656 298.635C140.107 298.404 139.634 298.031 139.313 297.526L139.261 297.44C139.239 297.405 139.218 297.368 139.198 297.332L139.17 297.276C138.559 296.099 138.723 294.767 139.619 293.791ZM140.075 263.421C140.471 263.296 140.868 263.279 141.264 263.368C141.534 263.368 141.785 263.437 142.017 263.571C142.27 263.642 142.49 263.77 142.676 263.956C142.9 264.088 143.078 264.267 143.211 264.491C143.475 264.78 143.653 265.119 143.745 265.507L143.852 266.301L143.745 267.096L143.444 267.809V267.809C143.362 267.917 143.278 268.025 143.194 268.133C143.061 268.358 142.882 268.537 142.658 268.671C142.511 268.816 142.344 268.925 142.157 269C141.492 269.477 140.607 269.633 139.82 269.415C139.353 269.285 138.947 269.048 138.603 268.705C138.261 268.36 138.024 267.954 137.893 267.486L137.839 267.113C137.77 266.612 137.759 266.334 137.9 265.697C137.963 265.417 138.143 265.022 138.237 264.856C138.641 264.145 139.3 263.659 140.075 263.421ZM174.52 241.572C175.659 241.564 176.798 241.566 177.937 241.579L178.791 241.59C180.222 241.613 181.447 241.465 182.571 242.459C183.387 243.18 183.028 244.39 182.253 244.933C181.079 245.755 179.607 245.342 178.258 245.251C176.835 245.155 175.411 245.076 173.986 245.012C171.228 244.889 168.468 244.81 165.707 244.798C162.952 244.786 160.192 244.812 157.437 244.857C154.634 244.902 151.715 245.164 148.928 244.873C148.545 244.833 148.459 244.329 148.837 244.198C151.464 243.288 154.418 242.993 157.171 242.646C160.01 242.287 162.85 242.032 165.707 241.868C168.642 241.699 171.581 241.593 174.52 241.572ZM140.069 232.637L140.163 232.639C140.665 232.64 141.134 232.758 141.571 232.993L141.665 233.045L142.267 233.511C142.635 233.883 142.89 234.32 143.031 234.825L143.138 235.616V235.616C143.153 236.026 143.068 236.409 142.882 236.764C142.762 237.133 142.557 237.452 142.267 237.722C141.997 238.012 141.678 238.217 141.31 238.338C140.982 238.51 140.632 238.596 140.257 238.596L140.163 238.594C139.627 238.592 139.126 238.457 138.663 238.188L138.06 237.722V237.722C137.692 237.35 137.437 236.912 137.296 236.408L137.189 235.616V235.616C137.174 235.206 137.259 234.824 137.446 234.469C137.565 234.1 137.77 233.78 138.06 233.511C138.33 233.22 138.649 233.015 139.018 232.895C139.345 232.723 139.695 232.637 140.069 232.637V232.637ZM148.887 162.686C149.528 161.757 150.689 162.584 150.523 163.331C150.567 165.429 150.674 167.465 151.151 169.52C151.369 170.461 151.655 171.403 152.096 172.265L152.282 172.628C152.853 173.758 153.296 174.823 152.527 176.062C152.164 176.646 151.509 177.085 150.799 177.054C147.65 176.918 147.217 172.529 147.026 170.079C146.828 167.556 147.442 164.783 148.887 162.686Z" fill="black"/>
<path fill-rule="evenodd" clip-rule="evenodd" d="M181.436 106.571C180.409 89.685 174.936 70.5404 158.828 62.2496C123.318 47.9815 76.6293 83.9127 74.1574 120.619C73.2957 133.184 80.2638 146.914 92.9975 150.407C95.8287 154.162 100.11 156.456 104.336 158.446C154.67 184.591 187.183 163.338 181.436 106.571V106.571Z" fill="white"/>
<path fill-rule="evenodd" clip-rule="evenodd" d="M192.903 96.0669C191.125 91.1206 189.245 86.2124 187.269 81.3422C185.344 76.6022 183.605 71.7599 181.214 67.2446C166.935 40.2764 140.969 40.2764 127.547 43.8001C120.586 40.7976 107.549 41.6446 100.301 44.3539C88.5677 48.7401 74.2645 65.9944 69.3743 73.7466C58.5771 90.8627 51.8389 113.644 59.011 133.422C59.9484 136.007 61.1439 138.401 62.4899 140.709C61.642 141.859 60.6661 142.949 59.585 144.02C56.3724 147.202 53.1597 150.279 50.3844 153.868C47.6265 157.435 45.3402 161.228 43.6381 165.41C40.4287 173.297 40.2742 182.228 44.5172 189.753C48.2087 196.301 54.7482 201.177 62.1157 201.642C62.494 201.695 62.8728 201.743 63.2532 201.781C64.2294 203.391 65.4197 204.873 66.7782 206.166C70.9405 210.129 80.862 212.162 86.521 212.293C86.8112 212.526 87.104 212.76 87.3969 212.99C90.8595 215.719 94.493 218.471 98.4681 220.412C101.161 221.729 104.691 222.829 107.5 221.878C108.775 222.731 110.865 222.552 112.129 221.854C114.206 220.708 115.895 218.645 116.923 216.533C119.415 211.405 118.816 205.794 118.176 200.315C117.471 194.264 116.793 188.21 116.104 182.159C115.564 177.427 115 172.617 113.563 168.059C112.82 165.697 111.847 163.428 110.589 161.294C110.621 161.115 110.616 160.935 110.564 160.767C110.152 159.426 109.301 158.723 108.292 157.811C108.162 157.694 108.032 157.575 107.904 157.452C107.4 156.877 106.86 156.342 106.283 155.889C106.06 155.663 105.841 155.435 105.621 155.207C103.796 153.293 102.072 151.282 100.54 149.126C99.0538 147.036 97.7116 144.853 96.4345 142.63C95.1356 140.369 94.2761 137.874 92.98 135.629C92.8688 135.436 92.5868 135.398 92.4295 135.558C92.0282 135.973 91.7706 136.435 91.8194 136.921L91.6188 136.951C91.5428 136.218 90.8677 135.621 89.9511 135.781C88.5791 136.02 87.4511 136.109 86.2634 135.653C86.4722 134.266 86.6647 132.876 86.8546 131.483C87.2016 128.921 87.5243 126.35 87.8009 123.779C88.4706 123.939 89.135 124.17 89.7857 124.463C90.7131 124.878 91.5889 125.438 92.3373 126.124C93.0749 126.803 93.5846 127.718 94.4849 128.19C95.5207 128.731 96.7707 127.837 96.467 126.665C95.8515 124.295 92.3671 122.937 90.2115 122.489C89.4712 122.335 88.7147 122.269 87.9582 122.286C88.129 120.635 88.2808 118.985 88.4056 117.331C88.4652 116.55 88.5194 115.768 88.571 114.983C90.2467 114.475 92.0418 114.323 93.7853 114.562C94.3601 115.021 94.935 115.474 95.4908 115.933C97.2561 117.394 99.0132 118.862 100.749 120.358C100.906 120.491 101.06 120.624 101.218 120.76C102.248 121.648 103.533 120.768 103.36 119.511C101.944 109.212 108.246 101.019 115.624 94.6715C123.791 87.6431 138.64 86.8246 148.353 74.6503C152.826 75.5618 162.813 78.2691 166.935 84.8442C172.705 94.058 171.951 102.313 172.39 112.765C172.83 123.225 173.947 134.136 171.574 144.449C169.386 153.959 163.461 162.084 154.269 165.819C154.041 165.912 153.811 166.001 153.58 166.088C148.827 167.882 143.64 168.39 138.64 167.445C133.106 166.397 128.485 163.862 123.881 160.743C123.615 160.566 123.227 160.93 123.428 161.196C129.496 169.248 141.416 171.938 150.872 169.813C151.314 169.712 151.753 169.604 152.189 169.484C150.074 175.573 150.5 182.257 153.255 188.186C154.912 191.753 157.439 194.84 160.517 197.275C163.909 199.957 168.117 202.123 170.471 205.889C172.626 209.339 171.986 213.216 168.296 215.208C167.366 215.713 167.008 217.345 167.93 218.062C168.282 218.333 168.635 218.61 168.996 218.881C171.062 220.442 176.737 223.374 177.656 223.483C185.818 224.452 191.306 218.452 194.823 211.375C198.953 203.068 197.879 192.945 193.329 185.034C189.679 178.687 182.491 172.432 185.349 164.399C186.369 161.53 188.454 159.084 190.479 156.874C192.789 154.358 195.273 152.001 197.489 149.395C199.69 146.808 201.643 143.993 202.733 140.746C204.324 136.001 203.533 130.87 202.337 126.133C199.774 115.963 196.447 105.929 192.903 96.0669Z" fill="black"/>
<path fill-rule="evenodd" clip-rule="evenodd" d="M147.185 149.158C145.362 148.414 143.736 147.172 142.547 145.585C142.133 145.034 142.026 144.452 142.113 143.919C142.211 143.32 142.564 142.777 143.047 142.413C143.531 142.048 144.137 141.868 144.722 141.96C145.231 142.039 145.738 142.318 146.138 142.897L146.222 143.012C146.929 143.97 147.85 144.755 148.9 145.262C149.911 145.75 151.043 145.978 152.214 145.845C154.444 145.593 155.981 144.386 157.614 142.746C157.817 142.539 158.019 142.325 158.223 142.108C158.352 141.912 158.53 141.785 158.728 141.719C158.948 141.646 159.197 141.65 159.425 141.729C159.645 141.806 159.841 141.952 159.973 142.145C160.098 142.329 160.169 142.557 160.146 142.819C159.997 144.518 159.109 146.034 157.849 147.225C156.449 148.547 154.594 149.462 152.847 149.783C150.922 150.137 148.961 149.883 147.185 149.158V149.158ZM153.755 122.945C155.802 124.191 158.922 127.096 156.719 130.186C154.126 132.909 150.393 129.786 148.554 128.374C146.848 127.279 144.931 130.095 146.514 131.373C159.807 141.226 165.202 123.271 154.79 121.48C153.644 121.282 153.218 122.559 153.755 122.945ZM129.933 111.483C130.16 108.672 134.436 108.033 134.862 110.815C135.243 113.307 134.794 115.597 133.673 117.84C132.602 119.984 129.909 118.984 129.705 117.032C129.432 114.415 129.793 113.232 129.933 111.483ZM162.489 110.238C163.085 109.456 163.946 108.923 164.978 109.224C168.201 110.167 167.251 114.748 166.119 116.977C165.504 118.188 163.516 118.495 162.618 117.429C161.153 115.691 160.452 112.219 162.314 110.506C162.364 110.418 162.42 110.328 162.489 110.238ZM133.628 99.1809L134.137 99.0917C135.712 98.819 137.67 98.557 138.784 99.8246C139.375 100.497 139.578 101.746 138.784 102.389C137.387 103.521 135.842 103.083 134.168 103.179C132.788 103.258 131.462 103.486 130.134 103.867C127.218 104.701 124.843 106.224 122.352 107.896C122.026 108.116 121.692 107.697 121.848 107.391C123.286 104.573 126.071 102.257 128.861 100.846C130.35 100.093 131.98 99.4676 133.628 99.1809ZM159.551 97.9183L159.941 97.9981C164.181 98.8854 169.69 100.658 171.698 104.828C171.775 105.417 171.694 105.544 171.628 105.626L171.606 105.654C171.552 105.724 171.509 105.821 171.253 105.902C171.183 105.885 171.111 105.867 171.039 105.848C170.118 105.606 169.39 105.274 168.685 104.928L167.921 104.551C167.034 104.116 166.139 103.697 165.191 103.387C163.168 102.726 161.087 102.261 158.973 102.012C158.515 101.958 158.074 101.804 157.726 101.538C157.396 101.286 157.143 100.938 157.028 100.474C156.879 99.8748 156.922 99.4208 157.243 98.8797C157.485 98.4734 157.831 98.1918 158.228 98.0301C158.633 97.8653 159.093 97.8264 159.551 97.9183Z" fill="black"/>
</g>
</svg>
