<svg width="255" height="258" viewBox="0 0 255 258" fill="none" xmlns="http://www.w3.org/2000/svg">
<mask id="mask0_854_14311" style="mask-type:alpha" maskUnits="userSpaceOnUse" x="0" y="0" width="255" height="258">
<ellipse cx="127.187" cy="128.509" rx="127.187" ry="128.509" fill="#D9D9D9"/>
</mask>
<g mask="url(#mask0_854_14311)">
<path fill-rule="evenodd" clip-rule="evenodd" d="M231.718 372.236C230.429 364.894 229.247 357.532 228.173 350.154C227.663 346.651 227.165 343.145 226.718 339.634C226.405 337.173 225.928 334.36 227.588 332.538C229.924 329.973 232.047 327.778 232.333 324.104C232.602 320.647 231.442 316.879 230.718 313.523C229.197 306.487 227.305 299.537 225.214 292.654C223.089 285.66 220.76 278.732 218.397 271.818C216.188 265.353 214.064 258.829 211.187 252.627C205.726 240.855 196.488 232.138 185.07 226.317C182.231 224.87 176.439 219.702 173.472 218.545C170.745 217.481 170.755 220.588 168.07 219.418C165.925 218.482 163.927 217.235 162.725 215.146C161.421 212.878 158.149 209.705 157.651 207.065C156.596 201.468 157.739 196.705 153.778 192.493C150.261 188.752 145.534 186.19 140.643 184.814C129.883 181.788 115.533 183.904 109.042 193.985C105.941 198.799 104.857 204.618 100.674 208.547C97.0202 211.978 97.8378 214.323 93.106 216.091C92.838 216.192 85.5741 214.621 85.3061 214.721C80.1296 213.604 75.1821 216.731 70.4331 218.545C63.353 221.25 56.6123 224.77 50.2795 228.953C37.5099 237.389 26.573 248.344 17.5563 260.74C8.46511 273.238 1.41127 287.247 -3.61128 301.888C-4.83101 305.445 -5.92663 309.044 -6.89301 312.679C-7.43394 314.713 -8.01197 316.823 -7.35332 318.906C-6.81463 320.609 -5.61633 321.878 -4.20915 322.9C-2.30166 324.286 1.52451 325.187 1.44998 327.974C1.39304 330.094 0.680011 332.324 0.331974 334.418C-0.0822805 336.912 -0.422641 339.421 -0.763001 341.926C-2.31126 353.327 -3.51627 364.793 -4.04921 376.292C-4.57382 387.614 -5.00919 399.167 -4.23026 410.485C-4.17876 411.232 -3.95804 411.917 -3.602 412.496C-3.93437 412.624 -3.95996 413.249 -3.54634 413.337C-3.25652 413.399 -2.96735 413.461 -2.67753 413.523C-2.0755 413.982 -1.32472 414.264 -0.460708 414.291C0.125006 414.31 0.7104 414.336 1.29547 414.367C7.46962 415.668 13.6428 416.897 19.8976 417.828C27.5007 418.96 35.1261 419.882 42.7753 420.632C58.493 422.173 74.0868 421.662 89.8253 420.831C105.539 420.002 121.244 419.808 136.975 420.22C152.719 420.634 168.457 421.324 184.205 421.607C201.799 421.922 219.365 421.437 236.908 420.027C239.313 419.834 240.801 417.905 240.327 415.496C237.485 401.065 234.264 386.73 231.718 372.236Z" fill="white"/>
<path fill-rule="evenodd" clip-rule="evenodd" d="M80.3968 214.366C82.0238 214.295 83.6827 214.56 85.3058 214.721C85.4472 214.735 85.5009 214.955 85.3416 214.989C82.4368 215.6 79.5638 216.438 76.7109 217.288L75.4894 217.652C72.2723 218.612 69.1496 219.602 66.0351 220.881C59.8281 223.432 53.9328 226.875 48.5072 230.83C27.6147 246.061 12.4937 269.12 2.95141 292.995C0.360005 299.479 -1.8357 306.124 -3.61428 312.881C-4.04677 314.525 -4.45366 316.175 -4.83945 317.831C-4.95269 318.316 -5.44627 319.559 -5.17565 320.056C-4.93637 320.495 -4.00614 320.766 -3.57397 320.995L-2.11493 321.757C0.731072 323.236 5.47176 325.667 5.94716 325.904L6.6886 326.272C18.8157 332.267 31.7735 337.35 45.4203 337.702L45.5272 336.527V336.527C46.1356 330.031 46.934 323.5 48.6768 317.203C48.7705 316.865 49.1975 316.979 49.2366 317.28C50.2074 324.734 49.8971 332.246 49.5584 339.735C48.9586 352.998 48.1621 366.254 47.4542 379.513C47.0997 386.145 46.6416 392.773 46.228 399.402C45.8138 406.044 45.6797 412.846 44.7338 419.433C44.523 420.901 42.8174 421.7 41.5257 421.545C40.0964 421.373 38.997 420.104 38.9903 418.649C38.973 414.811 39.4512 410.929 39.717 407.101C39.9694 403.464 40.2404 399.829 40.518 396.194C41.5327 382.927 42.7 369.676 43.7796 356.416C44.1622 351.713 44.5755 347.014 45.0009 342.315C30.5443 341.845 17.0383 336.446 4.15387 330.138C3.96738 334.407 3.51697 338.669 3.08097 342.921C1.8638 354.785 0.790573 366.646 -0.0126642 378.548C-0.418282 384.559 -0.713538 390.577 -0.970727 396.597C-1.09708 399.555 -1.20009 402.514 -1.2791 405.474C-1.30554 406.46 -1.32943 407.447 -1.35056 408.434L-1.39452 410.694C-1.43048 412.127 -1.57488 413.453 -2.77009 414.496C-3.98407 415.555 -5.62381 415.611 -6.82531 414.496C-8.4337 413.003 -8.14932 410.968 -8.10166 408.962C-8.06199 407.271 -8.01433 405.579 -7.95899 403.888C-7.84799 400.506 -7.70628 397.124 -7.53386 393.744C-6.93051 381.928 -5.725 370.159 -4.14955 358.437L-3.53456 353.912C-2.38607 345.5 -1.1252 336.897 1.44218 328.793C0.442535 328.292 -0.554234 327.787 -1.54716 327.28C-3.30847 326.381 -5.12958 325.537 -6.84162 324.545C-8.19986 323.757 -9.37129 322.678 -9.7494 321.084C-10.1711 319.308 -9.52627 317.366 -9.09789 315.634L-9.06068 315.482C-8.64067 313.738 -8.18835 312.001 -7.71108 310.272C-5.77576 303.26 -3.38268 296.385 -0.582064 289.678C5.02556 276.25 12.2637 263.493 21.105 251.959C29.0635 241.577 38.465 232.161 49.4838 225.099C54.8708 221.647 60.6115 218.812 66.6826 216.808C69.5203 215.871 72.6079 215.056 75.579 214.721C77.1816 214.54 78.7865 214.437 80.3968 214.366ZM109.223 193.088C111.156 190.995 114.998 193.161 114.069 195.933C111.886 202.454 108.409 208.403 102.982 212.688C97.8811 216.717 91.7984 219.333 85.2478 218.775C85.1972 218.77 85.1534 218.757 85.1147 218.739L85.6792 219.511C90.1112 225.556 94.7867 231.517 100.422 236.458C111.904 246.524 127.537 251.954 142.632 248.092C154.509 245.053 164.972 235.583 168.05 223.515C167.609 223.715 167.084 223.783 166.509 223.657C164.047 223.118 161.609 220.507 160.021 218.635C158.303 216.609 156.962 214.423 155.978 211.951C154.179 207.427 153.602 201.602 156.059 197.22C156.362 196.679 157.062 196.982 157.121 197.51L157.215 198.333C157.688 202.44 158.278 206.413 160.199 210.157C161.139 211.989 162.265 213.777 163.637 215.311C164.371 216.132 165.166 216.916 166.025 217.605C166.862 218.275 167.875 218.76 168.625 219.53L168.763 219.677L168.767 219.651C168.956 218.025 170.087 217.309 171.194 217.354C172.264 217.397 173.522 217.872 174.009 218.1L174.055 218.122C181.525 221.737 188.405 226.45 194.88 231.679C208.269 242.491 218.301 256.627 223.162 273.272C225.547 281.442 226.916 289.86 228.361 298.239L229.251 303.372C230.6 311.107 232.106 318.994 235.151 326.19C235.938 328.051 235.331 329.797 233.4 330.529C230.989 331.443 228.569 332.328 226.144 333.202C227.335 338.351 228.061 343.678 228.952 348.852C230.848 359.85 233.171 370.778 235.162 381.762C236.181 387.378 237.099 393.013 238.117 398.629C238.606 401.334 239.117 404.035 239.615 406.739C239.882 408.197 240.125 409.659 240.381 411.119L240.425 411.361C240.572 412.131 240.756 412.928 240.545 413.698C240.306 414.577 239.625 415.198 239.018 415.829C238.518 416.347 237.795 416.351 237.183 416.067L236.981 415.974C235.887 415.458 235.03 414.943 234.642 413.698C234.396 412.91 234.308 412.023 234.147 411.211C233.839 409.655 233.547 408.097 233.271 406.534C232.72 403.407 232.181 400.279 231.655 397.148L231.164 394.216C229.478 384.111 227.877 373.944 227.068 363.733C226.709 359.203 226.328 354.676 225.944 350.149L225.656 346.753C225.291 342.455 224.845 338.049 224.782 333.693L223.333 334.212V334.212L216.26 336.733V336.733C214.506 337.358 212.273 338.638 210.386 338.405C209.462 338.291 208.758 337.998 208.214 337.465C208.865 346.733 209.747 355.984 210.922 365.188C211.991 373.564 213.176 381.927 214.576 390.253C215.269 394.376 215.982 398.495 216.755 402.602C217.142 404.657 217.541 406.708 217.953 408.757C218.158 409.78 218.402 410.803 218.562 411.834C218.745 413.015 218.422 413.741 217.768 414.712C217.231 415.51 216.157 415.919 215.286 415.369C214.132 414.639 213.53 414.007 213.191 412.678C212.883 411.47 212.695 410.21 212.456 408.987C212.016 406.73 211.59 404.47 211.179 402.207C210.32 397.475 209.527 392.731 208.82 387.973C206.326 371.211 204.744 354.309 203.945 337.379C203.55 329.026 203.429 320.666 203.499 312.304C203.534 308.018 203.673 303.72 203.974 299.445C204.279 295.117 204.912 290.876 205.477 286.59C205.497 286.439 205.708 286.431 205.717 286.59C205.985 291.395 206.405 296.195 206.611 301.013C206.807 305.61 206.893 310.214 207.049 314.813C207.254 320.858 207.539 326.907 207.915 332.951C208.597 332.199 209.624 331.766 210.652 331.935C212.142 331.62 213.745 330.832 215.165 330.354L220.518 328.551V328.551C223.332 327.603 226.146 326.662 228.97 325.749C226.445 317.185 224.716 308.493 223.239 299.674L222.58 295.708C221.276 287.901 219.871 280.09 217.509 272.53C215.026 264.582 211.311 257.193 206.383 250.501C201.525 243.906 195.614 238.099 189.529 232.668C184.319 228.018 178.745 223.82 173.431 219.298C173.487 219.597 173.499 219.927 173.45 220.29C172.32 228.628 168.006 236.392 161.995 242.167C149.917 253.769 132.04 256.176 116.582 250.736C101.63 245.473 88.4095 233.01 83.7389 217.587C83.6589 217.323 84.0095 217.218 84.1502 217.412C84.4093 217.77 84.6697 218.128 84.9304 218.486C84.9129 218.344 84.9861 218.189 85.1601 218.121C90.6097 216 95.9611 212.991 100.046 208.734C102.037 206.659 103.775 204.308 105.146 201.773C105.803 200.559 106.394 199.301 106.864 198.002L106.984 197.666C107.555 196.038 108.032 194.378 109.223 193.088Z" fill="black"/>
<path fill-rule="evenodd" clip-rule="evenodd" d="M77.7534 78.8466C79.4123 77.0516 81.5341 75.7144 83.8536 75.287C81.7334 76.355 79.6609 77.468 77.7534 78.8466ZM74.504 94.3233C74.2106 92.9554 74.0136 91.5743 73.9515 90.1935C74.3223 90.7619 74.9144 91.1415 75.5794 91.3376C75.1498 92.3075 74.7845 93.3067 74.504 94.3233ZM185.511 115.77C183.597 107.733 174.663 92.2749 172.551 89.2996C170.258 81.9325 182.764 76.0244 175.963 70.2635C172.883 67.6641 168.814 66.7442 164.996 65.8224C138.564 59.4219 110.165 62.6499 85.6501 74.4197C81.9212 73.6285 78.0362 75.1748 75.3245 77.8906C62.585 90.8012 79.9465 114.096 83.7429 128.651C90.2565 144.88 76.8391 147.61 78.278 161.341C79.396 168.435 86.5221 170.31 92.5357 171.382C93.4995 171.61 94.788 171.644 95.099 172.671C96.0733 178.668 99.4136 184.382 103.898 188.26C103.506 189.432 103.805 190.854 105.188 191.883C117.718 201.271 133.516 205.969 149.143 205.125C167.766 204.118 177.397 193.355 179.721 190.584C192.571 173.087 191.035 150.002 188.414 129.15C186.588 114.624 188.903 130.007 185.511 115.77Z" fill="white"/>
<path fill-rule="evenodd" clip-rule="evenodd" d="M128.087 48.8959C128.672 47.0509 130.329 45.9414 132.226 46.1704C133.906 46.3704 135.704 48.0508 135.499 49.9054C135.46 50.2634 135.409 50.5989 135.348 50.915L135.356 50.9178V50.9178L135.364 50.9182L135.323 51.0408C135.198 51.631 135.025 52.16 134.769 52.6599C134.443 53.6178 134.13 54.579 133.819 55.5434C134.267 55.5241 134.725 55.5499 135.188 55.6369C135.668 54.3984 136.151 53.1631 136.631 51.9213C137.146 50.5956 137.508 48.8926 138.525 47.867C139.827 46.5574 142.085 46.2865 143.672 47.2219C145.348 48.2089 145.946 49.9635 145.582 51.8439C145.396 52.803 144.761 53.4706 143.974 53.8899L143.889 53.9339L143.285 55.3789C143.47 55.2983 143.662 55.2241 143.87 55.1628C144.197 55.066 144.516 55.0048 144.83 54.979C145.694 53.4017 146.644 51.8697 147.626 50.3666C148.755 48.6378 150.962 47.9024 152.814 48.9958C154.471 49.9731 155.361 52.5406 154.174 54.2274C153.272 55.5079 152.418 56.8142 151.576 58.1334C151.72 58.1592 151.864 58.1915 152.002 58.2334C152.066 58.1463 152.133 58.0592 152.203 57.9721C153.121 56.8239 154.19 55.9627 155.287 55.008C156.314 54.1113 156.787 52.7018 158.137 52.0213C159.836 51.1665 161.883 51.5762 162.894 53.2792C165.063 56.9271 161.422 59.5913 159.094 61.8007C161.119 60.5267 163.227 59.3623 165.389 58.356C166.605 57.7915 167.839 57.2464 169.093 56.7755C170.952 56.0788 172.455 56.3017 173.981 57.598C174.663 58.1786 175.002 59.4465 174.688 60.2912C174.08 61.9103 173.121 62.8941 171.438 63.3618C170.255 63.6908 169.042 63.9133 167.859 64.2584C165.875 64.8326 163.95 65.5325 162.081 66.4066C162.216 66.4904 162.344 66.5807 162.462 66.6839C163.857 66.2292 165.277 65.8357 166.704 65.5002C169.07 64.9408 171.478 64.5628 173.897 64.3264L174.701 64.251C177.601 63.9704 181.088 63.4525 182.868 66.2517C183.453 67.1742 183.517 68.6966 182.868 69.6094C181.627 71.364 180.392 71.7123 178.338 71.7446C180.36 71.9607 182.378 72.2284 184.387 72.5413C185.772 72.7541 187.156 72.9955 188.535 73.2632L189.224 73.3992C190.903 73.7379 192.778 73.9346 194.221 74.9152C197.368 77.0568 195.89 81.2273 192.404 81.6724C190.718 81.8852 188.846 81.166 187.193 80.8305C185.587 80.5048 183.975 80.2177 182.356 79.9661C181.518 79.8339 180.68 79.7178 179.838 79.6113C181.55 79.8597 183.248 80.2113 184.902 80.708L185.362 80.8477C188.559 81.8302 192.874 83.395 193.872 86.8395C194.476 88.9327 192.823 90.7583 190.82 90.8809C188.958 90.9938 187.407 89.8746 185.827 89.0489C184.675 88.4489 183.504 88.0006 182.263 87.6168C180.98 87.2201 179.672 86.8911 178.354 86.6234C179.468 87.242 180.553 87.922 181.594 88.6827L182.072 89.0393C184.84 91.1184 189.06 94.3374 188.085 98.2348C187.778 99.4637 186.418 100.638 185.113 100.512C181.716 100.193 179.842 96.5447 177.279 94.5901C176.611 94.0805 175.878 93.5773 175.11 93.0871C178.994 97.7574 182.084 103.157 184.435 108.733C189.602 121.002 191.188 132.364 191.226 145.556L191.226 145.964C191.233 153.241 191.07 160.65 190.366 167.894C189.713 174.586 188.517 181.192 185.507 187.253C180.462 197.416 170.632 205.331 159.791 208.343C147.728 211.698 134.245 209.076 124.363 201.335C121.843 199.361 125.186 195.075 127.761 196.897C138.045 204.17 151.346 206.473 163.15 201.551C172.513 197.648 180.053 189.252 183.248 179.586C185.282 173.436 185.875 166.879 186.6 160.47L186.649 160.043C187.417 153.341 187.861 146.593 187.855 139.846C187.845 127.315 186.06 117 180.593 105.634C178.021 100.28 174.685 95.329 170.699 90.9841C169.49 91.2325 168.204 90.8841 166.982 90.7519C166.358 90.6841 165.735 90.6196 165.111 90.5616C165.748 90.977 166.373 91.4089 166.987 91.851L167.793 92.4368C170.314 94.2574 173.513 96.331 172.865 99.8507C172.689 100.802 171.748 101.676 170.837 101.892C167.532 102.686 165.261 99.4475 163.028 97.5252C161.087 95.8545 159.055 94.3579 156.986 92.8581C156.515 92.5194 156.042 92.1807 155.565 91.8453C156.013 92.3717 156.449 92.9063 156.874 93.4459L157.502 94.2487C159.403 96.6469 162.143 99.7641 160.45 102.873C159.97 103.75 158.947 104.334 157.955 104.315C154.545 104.244 153.189 100.341 151.589 97.8768C150.214 95.7641 148.72 93.7741 147.175 91.784C146.749 91.2389 146.321 90.6938 145.886 90.1487C138.723 90.5229 131.587 91.4776 124.575 93.0032C119.757 94.0515 115.02 95.4097 110.317 96.8963L109.926 97.0216C107.382 97.8478 104.759 98.9051 102.925 100.718C102.663 101.968 102.864 103.285 103.114 104.533L103.31 105.488C104.114 109.481 104.662 113.4 104.252 117.5C103.827 121.729 102.563 125.531 101.021 129.46C100.292 131.311 99.537 130.976 99.2779 132.963C99.0794 134.476 99.2022 136.038 99.3378 137.564L99.4511 138.858C99.7355 142.247 99.8783 145.942 97.6753 148.738C97.333 149.167 96.6005 148.996 96.3573 148.567C96.2614 148.396 96.159 148.232 96.0471 148.074C94.985 146.522 93.3568 145.638 91.4951 145.297C91.2583 145.255 91.3511 144.935 91.5494 144.91C93.1233 144.722 94.614 145.119 95.8807 145.938C95.28 143.844 90.6294 144.863 89.1006 145.27L89.0479 145.284C87.1414 145.8 85.3372 146.638 83.7474 147.825C80.5485 150.212 78.6996 153.934 78.7923 157.943C78.8851 161.885 80.9036 165.526 84.3712 167.413C86.0442 168.323 87.9475 168.761 89.8412 168.742C91.8181 168.723 93.5775 167.849 95.5576 167.971C96.7028 168.042 97.5793 169.281 96.9172 170.361C96.4757 171.084 95.8999 171.651 95.2345 172.087C96.8564 175.857 98.926 179.454 101.312 182.773C102.634 184.614 104.131 186.314 105.778 187.865C107.064 189.078 109.85 190.481 109.693 192.504C109.639 193.232 109.265 193.678 108.606 193.949C106.557 194.793 104.066 191.885 102.696 190.483L102.586 190.372C100.877 188.656 99.3195 186.759 97.9632 184.746C95.5576 181.173 94.0638 177.144 93.4464 172.912C90.1611 173.909 85.8107 172.974 83.13 171.751C74.7042 167.913 71.9499 156.473 77.0713 148.854C78.063 147.38 79.3041 146.119 80.7181 145.1C80.4078 144.929 80.1167 144.71 79.8576 144.432C78.4242 142.897 77.4108 140.894 76.4051 139.047L76.2844 138.826C75.3916 137.201 74.5493 135.55 73.7598 133.873L73.4662 133.243C71.7036 129.421 70.1586 127.75 68.9014 123.732C67.6922 119.855 66.739 115.904 66.1216 111.885L65.9575 110.821C65.6005 108.489 65.2628 105.995 65.5234 103.628C63.7288 104.218 61.9247 104.582 60.1493 103.695C58.9785 103.112 58.3323 101.409 58.7322 100.186C59.0233 99.2863 59.5095 98.5799 60.1269 98.0251C59.759 97.8381 59.4135 97.5994 59.1097 97.3349L58.8441 97.103V97.103C57.7693 96.1609 57.6926 94.3708 58.3451 93.1903C58.4091 93.0774 58.4731 92.9613 58.5339 92.8484C59.1544 91.7292 60.4372 90.997 61.7039 91.0164C61.9087 91.0196 62.1134 91.0196 62.3213 91.0164C61.7295 90.8841 61.1505 90.6809 60.6003 90.339C58.118 88.8005 58.4315 84.6301 61.4352 83.8947C62.6956 83.5883 64.0871 83.714 65.4754 84.043C65.4242 84.014 65.3731 83.985 65.3219 83.9527C64.2726 83.3044 63.3929 82.0368 63.4921 80.737C63.6009 79.2985 64.0615 78.2728 65.3219 77.5181C66.4159 76.8665 67.9641 76.8052 69.0518 77.5181C69.9954 78.1406 70.9199 78.8276 71.8092 79.5662C70.9167 78.4599 70.1426 77.2568 69.8291 75.9795C69.442 74.3894 70.0882 72.6574 71.5085 71.8188C72.6409 71.1511 73.8373 71.2253 74.9057 71.7414C74.8481 70.906 75.0496 70.0545 75.5999 69.2997C76.7259 67.7519 78.7731 66.8613 80.5549 67.9902C80.7884 68.1386 81.1019 68.3934 81.4058 68.7063C80.814 66.8065 81.3482 64.8132 83.3667 63.9553C84.5983 63.4295 86.2649 63.694 87.3333 64.6003C86.6552 60.9008 92.0709 58.1818 94.1757 62.0039C94.6534 62.8697 95.1261 63.7814 95.5487 64.7141L95.7048 65.0648L95.7208 65.0583L95.6132 64.8019V64.8019L95.5033 64.5455C94.9179 63.1747 94.1725 61.7491 93.9678 60.2622C93.6671 58.0624 94.6396 55.9756 97.0131 55.6531C98.2383 55.4854 99.601 56.0466 100.423 57.0274C99.9785 53.6146 103.76 51.1343 106.482 53.6824C107.771 54.8887 108.459 56.6529 109.278 58.2011C109.741 59.0752 110.215 59.9461 110.679 60.8234C110.797 60.6815 110.925 60.5396 111.059 60.4009C110.372 58.3237 109.837 56.1949 109.386 54.0533C108.958 52.0342 109.959 49.9377 112.025 49.3671C113.903 48.8443 116.254 50.0122 116.673 52.028C116.968 53.4469 117.316 54.8503 117.7 56.2465C117.963 56.182 118.222 56.1369 118.478 56.1046C118.499 55.8423 118.523 55.5785 118.55 55.3162L118.651 54.3832C118.874 52.2514 119.1 49.8178 120.205 48.0057C122.089 44.9093 126.919 46.193 126.971 49.8538C126.999 51.7471 126.235 53.6243 125.969 55.4983C125.854 56.3143 125.787 57.14 125.749 57.9657C126.264 55.2241 126.971 52.518 127.789 49.8538C127.885 49.5345 127.988 49.2152 128.087 48.8959ZM86.412 154.618C90.6505 153.957 94.5244 156.34 97.0355 159.679C97.4929 160.288 97.1922 161.15 96.7796 161.662C96.4821 162.04 96.0822 162.085 95.6312 162.143C95.113 162.211 94.4572 161.788 94.2301 161.333C92.6146 158.082 89.7325 156.028 86.412 154.763C86.3512 154.741 86.332 154.631 86.412 154.618ZM92.2877 96.3659L92.416 96.227C93.2736 95.33 91.9183 93.9599 91.0587 94.8588C90.1538 95.8051 89.5524 96.9546 88.974 98.1197C88.4229 99.2305 90.078 100.212 90.6314 99.0966L90.8834 98.5898C91.2789 97.8018 91.7007 97.0233 92.2877 96.3659V96.3659ZM80.3844 94.5249C81.6 94.3185 81.0846 92.4533 79.8742 92.659C78.3061 92.9255 76.7441 93.2283 75.1757 93.4951C73.9604 93.7015 74.4758 95.5667 75.6862 95.3613C77.2543 95.0945 78.8163 94.7917 80.3844 94.5249ZM152.797 81.7907C151.622 81.3956 151.119 83.2641 152.286 83.657C153.9 84.1998 155.501 84.7562 157.032 85.51C158.138 86.0544 159.112 84.3859 158.001 83.8389C156.32 83.0116 154.568 82.3868 152.797 81.7907ZM80.108 79.2827C78.9612 78.8202 78.4632 80.6912 79.5978 81.1489L83.7436 82.8206V82.8206C84.8903 83.2831 85.3884 81.4124 84.2538 80.9547L80.108 79.2827V79.2827ZM167.273 74.7389L167.122 74.6426C166.082 73.9633 165.119 75.638 166.153 76.3137C166.76 76.7102 167.498 76.9791 168.053 77.4514L168.17 77.5558C169.067 78.4105 170.427 77.0449 169.527 76.1873C168.868 75.5604 168.035 75.2114 167.273 74.7389V74.7389Z" fill="black"/>
<path fill-rule="evenodd" clip-rule="evenodd" d="M135.432 175.251C139.349 170.661 145.947 170.341 151.412 171.489C154.919 172.226 158.334 173.452 161.897 173.907C163.56 174.12 165.242 174.183 166.918 174.152C168.564 174.121 170.213 173.787 171.853 173.849C172.105 173.859 172.2 174.192 171.982 174.328C169.732 175.722 166.7 176.169 164.042 176.441C164.05 176.64 164.062 176.833 164.089 176.998C164.162 177.435 164.228 177.87 164.281 178.311C164.402 179.304 164.537 180.295 164.672 181.287C164.937 183.239 165.021 185.252 165.487 187.17L165.569 187.489C165.677 187.892 165.702 188.256 165.665 188.583L165.774 188.534L166.115 188.367L166.339 188.261C167.156 187.879 167.936 187.601 168.896 187.694C169.627 187.764 170.241 188.267 170.246 189.054C170.264 192.587 165.541 193.724 162.84 194.4L162.047 194.597C158.609 195.443 155.098 196.184 151.561 196.361C145.886 196.645 139.508 195.067 135.796 190.425C132.332 186.094 131.697 179.627 135.432 175.251ZM161.206 190.097C160.61 184.777 154.126 184.484 152.261 187.858C151.434 183.155 139.19 187.451 140.147 188.386C143.776 191.929 149.283 192.248 154.017 191.593C156.428 191.259 158.841 190.716 161.206 190.097ZM154.01 176.153L152.38 175.917L151.738 175.828C147.697 175.282 143.152 175 139.83 177.612C138.617 178.566 137.934 179.809 137.679 181.145C140.823 180.676 143.978 180.317 147.143 180.019L148.006 179.939C149.987 179.759 151.966 179.569 153.944 179.37L155.35 179.227L156.755 179.08C157.25 179.027 160.582 178.855 161.209 178.971C161.276 178.403 161.363 177.175 161.505 176.622C159.137 176.703 156.779 176.526 154.425 176.21L154.01 176.153ZM161.513 152.375C163.929 153.856 167.61 157.308 165.011 160.978C161.952 164.214 157.548 160.504 155.378 158.826C153.366 157.525 151.105 160.87 152.972 162.389C168.654 174.095 175.018 152.762 162.735 150.635C161.383 150.4 160.881 151.917 161.513 152.375ZM165.836 158.612L165.952 158.548L165.992 158.525C166.06 158.48 166.016 158.485 165.862 158.539L165.746 158.581V158.663C165.776 158.645 165.808 158.631 165.836 158.612ZM134.9 145.459L134.899 145.386C134.904 143.33 136.092 138.633 139.029 138.633C140.863 138.633 141.977 141.829 142.17 145.124L142.176 145.258C142.262 147.307 141.704 151.784 139.029 151.784C136.325 151.784 134.928 147.543 134.9 145.459V145.459ZM178.134 144.814L178.135 144.741C178.13 142.684 176.942 137.988 174.006 137.988C172.217 137.988 171.113 141.027 170.881 144.232L170.864 144.479C170.749 146.458 171.27 151.139 174.006 151.139C176.709 151.139 178.106 146.898 178.134 144.814V144.814ZM136.575 124.61C138.972 124.243 142.145 124.941 143.263 127.398C143.761 128.493 143.171 129.703 141.916 129.764C138.883 129.91 136.163 129.23 133.501 131.218C132.356 132.074 131.392 133.259 130.584 134.441L130.278 134.891L130.025 135.262C129.476 136.075 128.956 136.959 129.037 137.941C129.061 138.231 128.767 138.507 128.487 138.496C126.742 138.423 126.554 136.218 126.784 134.893C127.211 132.435 128.391 130.127 130.026 128.268C131.744 126.316 134.012 125.003 136.575 124.61ZM169.584 127.594C171.237 126.523 173.351 126.111 175.287 126.269C179.104 126.579 185.508 129.851 184.665 134.552C184.405 136.002 182.405 136.767 181.226 135.962C179.959 135.098 179.651 133.753 178.708 132.623C177.955 131.721 177.002 131.067 175.981 130.511C174.974 129.962 173.81 129.63 172.668 129.508L172.478 129.49C171.79 129.431 168.319 129.447 168.828 130.754C168.928 131.009 168.551 131.212 168.377 131.018C167.313 129.831 168.518 128.285 169.584 127.594Z" fill="black"/>
</g>
</svg>
