<svg width="257" height="257" viewBox="0 0 257 257" fill="none" xmlns="http://www.w3.org/2000/svg">
<mask id="mask0_854_14344" style="mask-type:alpha" maskUnits="userSpaceOnUse" x="0" y="0" width="257" height="257">
<circle cx="128.366" cy="128.366" r="128.366" fill="#D9D9D9"/>
</mask>
<g mask="url(#mask0_854_14344)">
<path fill-rule="evenodd" clip-rule="evenodd" d="M112.338 181.338C116.495 180.189 121.275 180.322 125.54 180.616C129.872 180.915 134.521 181.427 138.586 183.042C142.119 184.446 145.099 186.807 146.915 190.191C148.407 192.972 149.108 196.022 149.546 199.121C149.726 200.388 149.876 201.659 150.019 202.931L150.313 205.578C150.428 206.59 150.528 207.349 150.73 208.478C151.287 211.601 152.064 214.21 153.799 216.482C157.999 221.983 164.857 223.824 171.093 226.172C175.084 227.674 178.245 230.377 179.121 234.719C179.967 238.908 212.131 274.055 215.288 277.018L215.375 277.098C217.824 279.3 217.536 283.439 217.879 286.462C218.246 289.702 218.596 292.945 218.927 296.188C219.601 302.779 220.202 309.376 220.729 315.979C222.789 341.803 223.723 367.717 223.525 393.622L223.512 395.089C223.481 398.376 223.506 401.678 223.358 404.963C223.216 408.119 222.26 411.279 219.331 412.927C216.617 414.455 213.185 414.321 210.153 414.473L209.971 414.483C206.717 414.66 203.461 414.806 200.204 414.927C186.967 415.416 173.719 415.469 160.474 415.408C134.199 415.287 107.898 414.71 81.6473 416.179C74.9559 416.554 53.6234 414.278 46.953 414.927C40.5774 415.546 46.0478 418.668 42.1091 418.463C29.1563 417.786 16.8699 414.9 4.4597 411.424C2.90943 410.99 1.72392 409.488 1.7434 407.864C1.97389 390.027 2.47817 372.195 3.26614 354.374C3.96811 338.5 4.89313 322.635 6.0406 306.787C6.5395 299.898 7.08032 293.012 7.66308 286.13L7.91539 283.18C8.24457 279.377 8.4339 275.503 9.1829 271.753C9.92384 268.043 11.6047 264.826 14.0419 261.952C16.2289 259.374 40.9895 239.187 46.953 235.365C52.6609 231.707 58.6547 228.621 64.5145 225.231C66.9524 223.82 69.2937 224.328 71.3764 222.596C72.4744 221.683 88.4061 215.533 92.7045 213.504L92.8311 213.444C96.121 211.868 99.1485 210.159 101.422 207.433C102.184 206.52 103.678 200.764 103.681 198.925C103.686 195.64 103.437 192.18 104.43 188.997C105.616 185.192 108.477 182.405 112.338 181.338ZM119.386 266.043L93.9288 315.548H110.483L98.6168 343.054H124.675L115.431 381.581L168.293 315.548H148.457L168.293 289.549H154.535L168.293 267.532L119.386 266.043Z" fill="white"/>
<path fill-rule="evenodd" clip-rule="evenodd" d="M204.903 293.88C204.844 293.939 204.782 293.998 204.723 294.059C204.792 293.964 204.85 293.864 204.903 293.766V293.88ZM155.428 279.459C153.142 282.376 150.722 288.31 148.501 291.279C148.183 291.705 147.87 292.132 147.561 292.561C146.639 293.849 147.87 295.82 149.386 295.737C152.415 295.576 155.44 295.351 158.466 295.122C152.251 302.039 147.09 310.63 141.383 317.957C140.996 318.449 140.615 318.943 140.235 319.437C138.79 321.319 140.238 322.172 142.212 321.665C142.62 321.56 143.028 321.455 143.437 321.353C146.308 320.618 149.176 319.882 152.047 319.15C153.634 318.742 155.23 318.239 156.839 317.927C157.501 317.8 158.135 317.905 158.76 317.939C158.46 318.396 158.039 319.221 157.956 319.348C157.018 320.806 156.075 322.258 155.125 323.703C153.275 326.515 151.415 329.323 149.488 332.082C141.97 342.838 133.862 353.107 125.824 363.472C123.801 366.079 121.75 368.659 119.665 371.213C119.674 371.198 119.68 371.182 119.689 371.167C121.567 367.515 123.445 363.867 125.323 360.215C128.893 353.277 132.429 346.32 136.037 339.4C136.222 339.039 136.411 338.68 136.6 338.319C137.348 336.885 136.12 335.397 134.582 335.699C127.081 337.175 119.653 338.988 112.317 341.135C111.987 341.487 111.501 341.59 111.068 341.505C110.773 341.593 110.477 341.677 110.182 341.767C110.272 341.582 110.364 341.398 110.454 341.214C110.154 340.954 110.005 340.551 110.2 340.049C114.422 329.172 120.209 318.672 127.067 309.056C126.791 309.061 126.516 309.065 126.239 309.073C118.712 309.277 111.327 310.355 104.072 312.403C104.038 311.733 104.443 310.695 104.663 310.201C105.542 308.226 106.55 306.299 107.494 304.356C109.424 300.364 111.355 296.376 113.285 292.385C115.172 288.486 117.044 284.575 118.82 280.621C119.751 278.548 120.682 276.472 121.61 274.396C122.368 272.706 122.966 271.004 123.594 269.274C125.437 269.815 149.114 269.932 154.868 270.331C156.279 270.43 157.693 270.519 159.106 270.597C160.233 270.661 161.82 270.909 162.596 269.892L162.89 270.139C160.335 273.191 157.884 276.327 155.428 279.459V279.459ZM62.9905 222.753C63.1081 222.701 63.2225 222.648 63.337 222.596C63.3958 222.679 63.467 222.756 63.5412 222.834C63.7268 223.022 63.9094 223.226 64.1012 223.411C63.7299 223.195 63.3587 222.975 62.9905 222.753V222.753ZM228.455 396.366C228.242 391.865 228.004 387.364 227.75 382.863C227.249 374.065 226.732 365.267 226.042 356.481C224.641 338.677 223.335 320.88 221.235 303.141C220.353 295.706 219.122 288.326 217.887 280.942C218.045 280.8 218.206 280.658 218.364 280.519C218.194 282.539 220.941 283.818 222.302 281.804C222.404 281.653 222.503 281.502 222.602 281.344C223.781 279.441 226.497 270.105 226.308 269.314C225.968 267.89 225.021 266.624 224.282 265.37C223.635 264.273 222.983 263.176 222.321 262.089C221 259.91 219.638 257.755 218.212 255.644C215.258 251.276 212.028 247.081 208.222 243.414C204.284 239.614 199.764 236.491 195.096 233.658C192.853 232.299 190.539 231.066 188.181 229.917C185.855 228.786 183.309 227.535 180.803 226.893C180.66 226.856 180.515 227.054 180.645 227.159C181.31 227.684 182.006 228.178 182.715 228.653C180.797 227.99 178.82 227.51 176.827 227.341C172.969 225.987 169.065 224.749 165.226 223.337C161.452 221.947 157.733 220.384 155.224 217.091C153.08 214.276 151.725 210.832 150.682 207.477C149.538 203.779 149.083 199.936 148.025 196.232C147.941 195.932 147.449 195.898 147.384 196.232C146.629 200.118 146.663 204.487 147.094 208.41C147.545 212.525 148.705 216.562 151.23 219.908C154.163 223.797 158.141 225.963 162.618 227.69C166.228 229.086 169.885 230.507 173.582 231.755C173.099 232.07 172.611 232.385 172.106 232.685C170.102 233.875 168.016 234.931 165.885 235.88C161.993 237.612 157.894 238.91 153.77 239.964C146.094 241.916 138.224 242.908 130.31 243.037C114.476 243.3 98.4663 239.988 83.9846 233.593C79.907 231.792 75.9254 229.812 71.984 227.733C70.7527 227.084 69.5152 226.429 68.2839 225.756C68.386 225.75 68.4912 225.741 68.5933 225.731C71.3436 225.472 74.0599 224.944 76.7205 224.196C82.1685 222.661 87.3907 220.266 92.5202 217.909C96.8699 215.91 101.35 213.634 104.007 209.47C105.427 207.242 106.08 204.629 106.609 202.071C107.2 199.223 107.896 196.362 108.326 193.486C108.478 192.479 108.252 191.116 107.169 190.641C106.736 190.452 106.38 190.297 105.894 190.297C104.821 190.297 103.719 191.076 103.463 192.145C102.828 194.811 102.445 197.551 101.947 200.245C101.517 202.574 101.124 205.006 99.8647 207.053C97.665 210.64 93.3524 212.475 89.708 214.221C85.089 216.433 80.467 218.589 75.6686 220.384C73.5556 221.174 71.4055 221.891 69.2244 222.478C69.311 221.944 69.2368 221.381 68.9212 220.958C68.3953 220.26 67.7982 219.797 67.1206 219.262C66.3843 218.681 65.3943 218.379 64.525 218.635C64.525 218.638 64.5219 218.635 64.5219 218.635C64.1692 218.558 63.7794 218.589 63.3772 218.771C62.1336 219.34 60.893 219.914 59.6524 220.498C41.8047 228.882 24.4643 238.731 11.3314 253.729C9.43807 255.891 7.66537 258.165 6.00403 260.51C4.38911 262.787 2.39056 265.258 1.94506 268.082C1.90794 268.317 2.25134 268.425 2.31012 268.183C2.41531 267.748 2.55762 267.322 2.73396 266.908C2.36581 268.193 2.38747 269.559 2.90721 270.902C3.52286 272.484 4.65208 273.531 6.07828 273.948C4.64589 280.216 3.68374 286.568 2.91031 292.99C1.79966 302.242 1.01076 311.517 0.416761 320.815C-0.77123 339.372 -1.30026 358.022 -0.916636 376.613C-0.808355 381.868 -0.628919 387.123 -0.356671 392.375C-0.220547 395.001 -0.0720479 397.623 0.0981071 400.249C0.265168 402.832 0.129044 405.677 2.38437 407.039C2.41222 407.141 2.44315 407.24 2.471 407.342C3.01859 409.248 5.45954 408.636 5.68847 406.906C5.69157 406.888 5.69466 406.866 5.69776 406.848C7.54162 405.442 7.26318 403.101 7.12706 400.854C6.98165 398.43 6.82697 396.008 6.69703 393.586C6.44953 388.939 6.23916 384.293 6.05044 379.644C5.68229 370.45 5.47501 361.244 5.40695 352.044C5.27082 333.642 6.33506 315.267 7.5973 296.917C8.12633 289.24 8.74508 281.597 8.9338 273.923C9.9207 273.411 10.2239 271.953 9.72888 270.97C21.417 278.934 32.2636 288.455 40.9724 299.521C42.4265 301.368 43.8156 303.271 45.1459 305.208C45.579 305.838 45.9905 306.494 46.405 307.148C46.0029 308.974 45.6904 310.831 45.282 312.582C44.4405 316.2 44.0847 319.953 43.6021 323.63C42.6214 331.096 41.9315 338.631 41.3468 346.138C40.1959 360.963 39.342 375.785 39.0729 390.654C38.9244 399.063 38.7264 407.524 39.0976 415.93C38.8223 417.573 40.3042 419.18 41.8542 419.387C43.2123 419.569 44.4807 418.865 45.0747 417.731C49.307 418.256 53.6505 418.497 57.8549 418.528C63.5195 418.568 69.1842 418.562 74.8488 418.441C86.1811 418.194 97.5103 417.904 108.84 417.568C131.498 416.9 154.156 416.23 176.818 415.56C183.101 415.374 189.385 415.189 195.668 415.003C198.502 414.92 202.035 415.735 204.269 413.551C204.652 413.174 204.949 412.733 205.16 412.26C205.828 412.427 206.648 412.263 207.087 411.747C207.907 410.78 208.51 409.885 208.479 408.544C208.451 407.289 208.105 405.967 207.925 404.726C207.585 402.393 207.257 400.06 206.945 397.725C206.329 393.11 205.754 388.488 205.225 383.864C204.142 374.408 203.158 364.929 202.391 355.442C200.869 336.682 200.439 317.822 200.491 299.002C200.497 297.319 200.507 295.635 200.516 293.951C200.587 294.041 200.665 294.124 200.748 294.195C200.816 294.254 200.884 294.312 200.952 294.374C201.744 295.07 203.062 295.428 204.012 294.77C205.178 294.016 205.983 292.885 206.892 291.863C207.848 290.791 208.832 289.746 209.825 288.709C211.749 286.701 213.739 284.776 215.768 282.873C215.932 282.722 216.096 282.567 216.26 282.419C216.272 288.409 216.266 294.396 216.427 300.383C216.668 309.277 217.151 318.162 217.593 327.043C218.472 344.63 219.382 362.211 220.257 379.795C220.502 384.704 220.734 389.616 220.978 394.525C221.102 396.98 221.222 399.436 221.34 401.893C221.402 403.221 221.464 404.553 221.526 405.881C221.594 407.308 221.504 408.834 221.986 410.19C223.085 413.292 227.831 413.73 228.743 410.19C229.316 407.969 228.876 405.399 228.774 403.119C228.669 400.87 228.564 398.618 228.455 396.366V396.366Z" fill="black"/>
<path fill-rule="evenodd" clip-rule="evenodd" d="M178.152 109.261C167.95 94.8323 142.315 93.2069 126.113 93.2984C94.1179 93.0323 87.4184 129.756 85.7475 155.489C82.3348 156.069 79.016 157.257 76.7641 159.935C74.0219 163.196 73.0748 168.793 75.6455 172.44C77.3532 174.862 80.0493 175.672 82.8696 175.806C92.2096 174.916 94.1251 183.23 98.7252 189.463C110.53 205.387 130.979 210.553 149.735 210.632C156.105 210.801 163.78 211.278 167.86 205.293C180.746 182.99 181.026 153.41 181.821 128.135C181.93 121.664 181.902 114.814 178.152 109.261V109.261Z" fill="white"/>
<path d="M121.664 48.7525C122.817 47.0121 125.348 46.3377 127.102 47.6285C128.563 46.7258 130.402 46.9166 131.715 48.0142C133.302 47.0774 135.273 47.4551 136.518 48.7613C138.514 47.6726 141.147 48.4769 142.216 50.5396C144.229 50.3166 146.126 51.6328 146.663 53.5377C146.758 53.6145 146.852 53.694 146.945 53.773C148.151 53.8308 149.299 54.3023 149.975 55.4224C150.312 55.9819 150.468 56.6396 150.445 57.2838C151.166 57.673 151.748 58.3117 151.998 59.1392C152.232 59.9151 152.144 60.6824 151.837 61.3511C152.841 62.4178 153.106 64.0807 152.394 65.4205C152.689 65.9246 152.842 66.5208 152.818 67.1402C152.783 68.0572 152.357 68.7962 151.777 69.4273C152.506 70.7402 152.221 72.4247 151.037 73.3453C150.357 75.7536 148.635 77.3564 145.997 78.3394C144.672 78.833 143.286 79.2135 141.873 79.4927C147.527 80.2524 153.089 81.587 158.432 83.5777C158.722 83.6861 158.969 83.6444 159.157 83.5181C159.274 83.5799 159.393 83.6364 159.51 83.6998C160.982 84.506 162.424 85.3801 163.828 86.316C163.828 86.1617 163.832 86.0075 163.838 85.8502C163.811 84.579 163.944 83.3266 164.282 82.1197C163.84 81.5176 163.509 80.831 163.329 80.1236C162.88 78.3584 163.734 75.8468 165.27 75.2437C165.809 73.7529 167.033 72.6741 168.533 72.2496C168.652 72.1424 168.779 72.0386 168.921 71.942C169.237 71.7251 169.582 71.5767 169.937 71.4908C170.122 70.683 170.574 69.9393 171.322 69.4175C172.379 68.681 173.628 68.6007 174.726 69.0025C174.934 68.9324 175.147 68.8717 175.36 68.8189C177.127 67.317 179.882 67.4277 181.436 69.1851C182.504 68.698 183.762 68.6761 184.854 69.3316C185.729 69.8561 186.272 70.7022 186.485 71.6304C188.14 71.6811 189.655 72.7779 190.133 74.4146C191.658 74.5872 192.905 75.7789 193.17 77.2789C194.143 77.4142 195.042 77.8709 195.589 78.7789C195.841 79.1986 195.978 79.6579 196.014 80.1177C196.505 80.3534 196.947 80.7102 197.28 81.1763C197.864 81.9931 197.976 82.9469 197.762 83.8443C197.811 83.9437 197.865 84.0406 197.912 84.1412C198.071 84.4784 198.198 84.8404 198.311 85.2076C198.824 85.9462 199.062 86.8495 199.015 87.7564C199.123 88.1401 199.229 88.5252 199.316 88.9117C199.663 90.4284 199.793 92.0439 199.555 93.5884C199.437 94.336 199.267 95.0712 199.025 95.7847C199.001 95.9205 198.96 96.0472 198.914 96.1675C198.781 96.7298 198.611 97.2832 198.394 97.8238C197.875 98.5127 197.33 99.1829 196.758 99.8316C196.275 100.554 195.724 101.222 195.102 101.834C194.654 102.275 194.162 102.687 193.64 103.057C192.602 103.888 191.44 104.535 190.201 104.957C189.98 104.91 189.758 104.875 189.535 104.839C188.128 105.613 185.913 105.7 184.559 105.695C183.068 105.689 181.702 105.313 180.566 104.602C180.698 104.864 180.829 105.126 180.961 105.388C180.928 105.407 180.893 105.424 180.864 105.446C180.619 105.04 180.344 104.679 180.021 104.419C179.581 104.065 178.87 104.033 178.564 104.607C178.559 104.617 178.553 104.627 178.548 104.637C178.385 104.943 178.408 105.237 178.532 105.477C178.578 105.542 178.623 105.608 178.668 105.673C178.684 105.692 178.699 105.712 178.717 105.729L178.709 105.73C179.131 106.07 179.547 106.901 179.941 107.71C180.208 108.182 180.461 108.661 180.699 109.148C180.838 109.353 181.085 109.532 181.348 109.585C181.296 109.974 181.476 110.376 181.77 110.576C181.848 110.42 181.942 110.26 182.062 110.096C183.392 108.293 186.004 107.515 187.972 108.339C188.364 108.273 188.758 108.218 189.156 108.187C190.455 108.102 191.771 108.204 193.054 108.472C193.452 108.711 193.833 108.979 194.187 109.285C194.487 109.544 194.766 109.816 195.025 110.097C195.226 110.248 195.424 110.408 195.618 110.574C196.404 110.996 196.983 111.806 197.468 112.612C197.852 113.155 198.188 113.733 198.479 114.344C199.828 116.649 201.385 119.51 200.169 121.776C200.298 122.02 200.393 122.291 200.446 122.586C200.614 123.52 200.27 124.235 199.817 124.928C199.877 125.412 199.91 125.881 199.935 126.294C200.08 128.609 199.548 131.784 197.503 132.729C197.471 132.767 197.439 132.805 197.405 132.843C197.247 133.1 197.007 133.321 196.69 133.483C196.612 133.538 196.532 133.59 196.451 133.634C196.415 133.665 196.374 133.691 196.337 133.72C196.38 133.675 196.421 133.629 196.464 133.584C195.333 134.034 194.24 134.128 193.074 133.991C192.353 134.251 191.63 134.445 191.02 134.595C189.118 135.064 186.664 135.44 184.809 134.64C184.269 134.407 183.82 134.098 183.483 133.73C183.511 135.163 183.554 136.597 183.616 138.031C183.743 141.654 183.737 145.275 183.709 148.902C183.678 152.983 183.563 157.066 183.344 161.144C183.242 163.192 183.077 165.237 182.857 167.276C182.672 169.262 182.456 171.246 182.205 173.223C181.614 177.289 180.639 181.385 179.451 185.314C178.934 187.019 178.369 188.747 177.726 190.433C177.453 191.209 177.165 191.975 176.852 192.735C175.204 196.717 173.15 200.56 170.375 203.878C168.859 205.688 167.185 207.317 165.316 208.685C163.816 209.853 162.191 210.841 160.406 211.62C156.57 213.294 152.288 213.671 148.14 213.609C146.525 213.587 144.811 213.296 143.215 213.031C141.99 212.83 140.749 212.562 139.52 212.247C138.432 211.993 137.355 211.7 136.294 211.357C135.016 211.02 133.791 210.535 132.625 209.908L130.559 209.132C129.695 208.808 128.857 208.422 128.043 207.98L125.797 206.933C124.866 206.485 123.959 205.994 123.074 205.454C122.981 205.404 122.876 205.321 122.836 205.228C122.607 205.101 122.375 204.981 122.146 204.851C122.109 204.833 122.137 204.724 122.186 204.619C122.147 204.536 122.153 204.443 122.264 204.36C122.347 204.295 122.481 204.314 122.62 204.357C122.608 204.348 122.598 204.338 122.589 204.329C122.434 204.245 122.282 204.165 122.131 204.082C121.976 203.998 121.951 203.782 122.097 203.668C122.137 203.637 122.184 203.622 122.23 203.619C122.227 203.619 122.224 203.615 122.221 203.615C122.193 203.596 122.215 203.51 122.255 203.415C122.177 203.316 122.153 203.195 122.289 203.09C122.49 202.933 122.96 203.223 123.13 203.319C123.325 203.427 123.523 203.528 123.718 203.633C123.73 203.606 123.756 203.581 123.796 203.556C123.508 203.405 123.223 203.251 122.938 203.096C122.762 203.004 122.534 202.809 122.766 202.627C122.951 202.479 123.43 202.732 123.659 202.862C123.687 202.84 123.718 202.831 123.755 202.825C123.656 202.769 123.551 202.716 123.452 202.658C123.174 202.503 123.363 202.022 123.65 202.182C123.684 202.204 123.718 202.222 123.752 202.244C123.959 202.225 124.25 202.395 124.383 202.469C125.351 203.078 126.36 203.609 127.406 204.066C128.111 204.4 128.82 204.73 129.531 205.051C130.23 205.397 130.951 205.697 131.69 205.951C133.55 206.674 135.428 207.347 137.324 207.971C139.982 208.697 142.733 209.281 145.492 209.509C145.851 209.537 146.21 209.562 146.568 209.575C147.354 209.569 148.14 209.565 148.923 209.559C150.448 209.402 151.973 209.247 153.495 209.092C154.027 209.018 154.547 208.926 155.06 208.818C155.33 208.753 155.599 208.684 155.865 208.607C155.958 208.595 156.051 208.577 156.143 208.561C156.796 208.388 157.437 208.181 158.077 207.94C158.479 207.776 158.878 207.604 159.274 207.421C160.583 206.813 161.87 206.009 163.083 205.088C164.602 203.578 166.121 202.071 167.64 200.56L169.029 198.669C170.824 196.109 172.243 193.254 173.422 190.34C174.047 188.543 174.672 186.745 175.297 184.947C175.492 184.298 175.677 183.649 175.853 182.998C176.209 181.54 176.565 180.081 176.921 178.627C177.038 178.092 177.153 177.56 177.265 177.029C177.948 173.72 178.325 170.362 178.65 167.004C179.244 160.894 179.405 154.765 179.448 148.629C179.476 144.963 179.445 141.296 179.371 137.632C179.328 135.507 179.296 133.381 179.266 131.255C179.225 129 179.183 126.742 179.124 124.487C179.121 124.438 179.139 124.394 179.164 124.357C179.158 124.091 179.154 123.826 179.151 123.557C179.148 123.381 179.216 123.304 179.315 123.289C179.297 121.679 179.284 120.073 179.281 118.466C179.281 118.362 179.331 118.294 179.395 118.253V117.845C179.126 116.727 178.761 115.631 178.288 114.586C178.127 114.21 177.948 113.841 177.75 113.483C177.506 112.946 177.187 112.457 176.797 112.009C176.472 111.463 176.073 110.978 175.609 110.545C175.421 110.41 175.229 110.273 175.04 110.137C174.882 110.054 174.65 109.909 174.446 109.742C174.078 109.516 173.713 109.288 173.345 109.062C173.131 108.951 173.27 108.673 173.422 108.599V108.589C173.388 108.574 173.351 108.556 173.31 108.522C172.865 108.102 172.401 107.706 171.918 107.336C171.831 107.369 171.73 107.357 171.652 107.293C171.368 107.027 171.077 106.77 170.78 106.523C170.115 106.087 169.418 105.689 168.691 105.336C167.525 104.787 166.331 104.314 165.106 103.913C164.842 103.826 164.576 103.749 164.311 103.67C163.935 103.653 163.558 103.632 163.182 103.616C149.163 103.002 135.108 103.26 121.121 104.386C117.675 104.664 114.233 104.995 110.798 105.378C107.775 105.716 104.151 105.704 101.372 107.086C101.254 107.145 101.142 107.207 101.033 107.271C101.25 108.659 101.817 110.015 102.311 111.324C103.073 113.343 103.756 115.401 103.688 117.587C103.641 119.112 103.312 120.579 102.84 122.011C102.598 124.054 101.96 126.028 101.283 127.966C97.9522 137.504 96.1389 147.269 96.3251 157.393C96.3301 157.664 96.2677 157.902 96.1601 158.103C96.221 158.546 96.2817 158.989 96.3534 159.43C96.6309 161.136 94.3781 161.985 93.6005 160.854C93.5483 160.906 93.4758 160.941 93.4091 160.947C93.2112 160.965 92.8859 160.641 92.7929 160.493C92.6722 160.27 92.5452 160.053 92.4091 159.846C92.3908 159.837 92.3756 159.831 92.3603 159.825C92.4438 159.998 92.5298 160.175 92.6103 160.341C92.746 160.613 92.2241 160.746 92.0693 160.496C91.93 160.276 91.7905 160.066 91.6513 159.865C91.5709 159.924 91.4816 159.939 91.4228 159.843C90.9247 159.022 90.3488 158.318 89.7177 157.718C88.7246 156.909 87.6386 156.418 86.4042 156.13C85.4329 155.991 84.4366 155.985 83.4745 156.096C82.3702 156.226 81.2071 156.501 80.2079 157.004C79.3943 157.564 78.5774 158.123 77.7607 158.682C77.5596 158.892 77.3678 159.112 77.1884 159.34C76.6223 160.072 76.1672 160.854 75.7929 161.685C75.7775 161.738 75.7624 161.79 75.747 161.839C75.5181 162.538 75.3696 163.255 75.3046 163.99C75.2953 164.92 75.2885 165.846 75.2792 166.776C75.403 167.984 75.7131 169.158 76.1865 170.273C76.4092 170.931 76.7582 171.518 77.2314 172.037C77.485 172.475 77.773 172.874 78.0947 173.245C78.7474 173.677 79.4589 174.045 80.2167 174.336C80.4023 174.385 80.5886 174.434 80.7773 174.471C81.7517 174.845 82.7602 175.046 83.8027 175.074C85.1205 175.163 86.4106 175.049 87.6728 174.731C88.4523 174.592 89.2074 174.366 89.9374 174.054C90.6365 173.702 91.2955 173.279 91.9111 172.785C91.9791 172.741 92.0819 172.766 92.1933 172.822C92.3294 172.723 92.4656 172.627 92.5986 172.519C92.6604 172.476 92.7162 172.528 92.7441 172.584C92.7563 172.574 92.7689 172.565 92.7812 172.556C93.0257 172.39 93.6966 172.911 93.3935 173.22C93.5232 173.3 93.653 173.396 93.7704 173.495C94.3087 173.516 95.3945 174.505 95.1904 174.66C94.8872 174.922 94.5688 175.164 94.2441 175.392C94.5315 175.605 94.9084 175.935 94.7333 176.068C94.4178 176.368 94.074 176.628 93.7089 176.85C93.4614 177.039 93.2074 177.218 92.9413 177.381C92.6537 177.551 92.3597 177.697 92.0566 177.833C92.5856 178.855 93.0902 179.887 93.5605 180.937C93.8729 181.682 94.2347 182.401 94.6523 183.093C95.1844 184.147 95.8217 185.136 96.5673 186.056C97.1736 187.076 97.8856 188.011 98.6991 188.867C99.7045 190.01 100.784 191.085 101.932 192.08C102.389 192.404 102.857 192.719 103.343 193.009C104.583 193.942 105.904 194.742 107.306 195.41C107.47 195.499 107.6 195.698 107.408 195.852C107.402 195.855 107.396 195.855 107.39 195.861C107.847 196.12 108.308 196.377 108.772 196.63C108.955 196.729 109.329 196.921 109.051 197.146C108.871 197.294 108.317 197.029 107.986 196.856C108.033 196.881 108.082 196.908 108.132 196.936C108.234 196.992 108.822 197.289 108.46 197.477C108.277 197.508 108.104 197.477 107.936 197.387C107.763 197.322 107.59 197.251 107.42 197.177C107.426 197.233 107.395 197.285 107.306 197.329C107.235 197.341 107.167 197.341 107.099 197.335C107.476 197.548 107.854 197.758 108.234 197.965C108.347 198.025 108.87 198.314 108.524 198.493C108.354 198.527 108.191 198.499 108.033 198.413C107.745 198.305 107.461 198.178 107.185 198.039C107.121 198.002 107.055 197.968 106.99 197.931C106.941 197.931 106.891 197.925 106.842 197.916C107.145 198.079 107.451 198.237 107.761 198.391C107.943 198.49 108.249 198.691 107.986 198.895C107.804 199.034 107.312 198.783 107.021 198.62C107.003 198.641 106.981 198.666 106.95 198.691C106.734 198.855 106.176 198.493 106 198.397C104.466 197.575 102.984 196.726 101.558 195.753C100.685 195.194 99.8341 194.607 99.0019 193.967C97.4087 192.738 95.9608 191.308 94.6337 189.8C93.7273 188.769 93.2359 188.187 92.3574 186.936C90.9467 184.922 89.8823 182.822 88.8583 180.594C88.8429 180.56 88.8735 180.474 88.9199 180.387C88.7095 179.871 88.5049 179.349 88.3007 178.808C87.7688 178.879 87.2338 178.929 86.705 178.96C85.4584 179.031 84.2485 178.92 83.0761 178.664C81.6561 178.481 80.2514 178.079 79.0077 177.449C78.2622 177.075 77.5438 176.677 76.8632 176.232C76.2538 175.908 75.6664 175.536 75.1034 175.104C72.7059 173.275 71.4036 170.437 71.0849 167.49C70.8405 166.192 70.7871 164.857 70.9325 163.569C71.0377 162.633 71.2484 161.707 71.5546 160.814C72.1207 158.834 73.1758 157.002 74.704 155.615C74.9608 155.352 75.2298 155.102 75.5175 154.867C76.3683 154.172 77.3341 153.612 78.3613 153.205C78.5591 153.109 78.76 153.019 78.9609 152.936L78.7167 152.374C78.6301 152.398 78.33 152.349 78.2929 152.244C78.1939 151.975 78.1007 151.7 78.0048 151.431C77.9491 151.465 77.878 151.484 77.8007 151.487V151.799C77.8036 151.889 77.6337 152.444 77.5409 152.155C77.445 151.889 77.3584 151.617 77.2656 151.348C77.1884 151.299 77.1301 151.24 77.1083 151.172C77.099 151.145 77.0895 151.116 77.0771 151.088C77.071 151.085 77.0618 151.086 77.0556 151.083V151.178C77.0587 151.237 76.9037 151.682 76.8759 151.595C76.3407 150.125 75.9047 148.623 75.5644 147.097C75.3324 146.257 75.1499 145.407 75.0107 144.545C74.8591 143.77 74.7257 142.992 74.6113 142.208C74.602 142.143 74.5922 142.077 74.5829 142.012C74.5799 141.997 74.5772 141.985 74.5741 141.969C74.5649 141.886 74.5552 141.8 74.5429 141.716C74.4191 140.83 74.3175 139.939 74.2402 139.044C74.0762 137.202 74.0107 135.352 74.0292 133.504C73.9891 133.52 73.9522 133.542 73.912 133.56C73.1084 133.902 72.2594 134.181 71.3954 134.404C69.9089 136.549 67.5353 138 64.6913 138.153C63.7283 138.205 62.7181 138.088 61.7831 137.816C61.6861 137.838 61.5861 137.856 61.4824 137.87C60.7204 137.969 60.19 137.66 59.4775 137.565C58.337 137.414 57.3699 137.34 56.6318 136.679C56.4039 136.685 56.1863 136.651 55.9794 136.589C54.022 137.058 51.9412 136.025 51.2529 133.86C50.0789 133.173 49.1435 132.154 48.5146 130.971C47.3031 129.42 46.3341 127.519 45.7333 125.521C45.7241 125.502 45.7139 125.484 45.705 125.464C45.4004 124.805 45.2555 124.097 45.2431 123.387C44.9189 121.365 45.0044 119.34 45.621 117.56C45.5951 116.596 45.8225 115.59 46.2382 114.678C46.7422 113.572 47.5106 112.3 48.5077 111.562C48.5102 110.428 48.9982 109.18 49.6376 108.335C50.9137 106.645 52.7638 105.752 54.7665 105.623C55.785 103.016 58.8713 102.407 61.5331 103.275C62.6388 102.147 64.2585 101.608 65.8749 101.799C67.2417 101.962 68.4098 102.615 69.3769 103.514C69.6318 103.587 69.8859 103.662 70.1396 103.741C70.9863 103.37 71.9742 103.286 72.8779 103.518C74.4442 103.921 75.4659 105.107 76.1728 106.466C76.3983 106.621 76.619 106.781 76.8339 106.948C77.0698 107.053 77.284 107.195 77.4784 107.361C77.7611 107.511 78.002 107.759 78.1484 108.118C78.5475 108.529 78.9184 108.964 79.247 109.43C79.4929 108.862 79.7467 108.298 80.0087 107.738C80.4353 107.866 80.9513 107.699 81.1659 107.13C82.5272 103.524 85.005 96.9156 87.3398 93.8707C84.6148 95.7233 81.2871 96.7003 77.9824 96.6021C77.8411 96.5978 77.6983 96.5913 77.5546 96.5836C75.7783 96.8893 73.9739 96.9182 72.3173 96.5865C71.2018 96.1821 70.1148 95.7 69.0615 95.1548C68.8053 95.022 68.5508 94.8826 68.2978 94.7418C68.1873 94.6488 68.0849 94.5444 67.9794 94.4449C67.7617 94.4606 67.5335 94.4437 67.2909 94.3795C66.3793 94.1388 65.5357 93.5329 65.0068 92.7545C64.9084 92.6096 64.8292 92.4605 64.7587 92.3101C64.1848 91.7497 63.6876 91.115 63.3222 90.3726C62.8922 89.5046 62.6294 88.5284 62.6015 87.5523C62.4221 86.5947 62.4345 85.6092 62.7685 84.6949C62.8056 84.596 62.8494 84.4998 62.8896 84.4009C62.9081 84.3392 62.9197 84.2742 62.9413 84.2125C63.039 83.8868 63.1635 83.5966 63.3144 83.3218C63.3704 83.0392 63.4624 82.7586 63.5917 82.4859C63.6063 82.354 63.6241 82.2217 63.6454 82.0904C62.6624 80.2384 63.0107 77.8164 64.4824 76.3111C64.2788 75.3381 64.486 74.3063 65.079 73.4429C65.5146 72.8084 66.1207 72.308 66.8066 71.9605C66.8781 71.9244 67.0668 71.8618 67.2929 71.7906C67.5466 71.5666 67.8144 71.3541 68.1074 71.1675C68.1806 69.2701 70.1663 68.2139 71.7792 67.2789C72.8253 66.6724 73.2829 65.5233 74.3603 64.942C75.5389 64.3066 77.0469 64.2685 78.3495 64.1119C81.4207 63.7424 84.6916 63.4566 87.7782 63.7906C89.4915 63.976 90.91 64.8025 91.497 66.1558C92.9712 66.3297 94.2856 67.3926 95.3251 68.4849C96.6225 69.8481 97.7275 71.2991 98.1083 73.0904C98.362 73.2272 98.5925 73.3955 98.8007 73.5845C98.7929 74.844 98.6284 76.1057 98.2802 77.2945C98.3826 78.0052 98.168 78.6841 97.8056 79.2994C97.861 79.882 97.8213 80.4561 97.6991 81.0279C98.4044 82.2775 97.7438 84.1658 96.7558 85.4048C96.7533 85.6378 96.7505 85.8711 96.748 86.1041C96.8067 86.0735 96.8644 86.0371 96.9179 85.9918C101.401 82.1821 106.01 82.7252 111.457 80.5455C116.369 79.5987 121.383 78.996 126.414 78.7955C126.348 78.7856 126.281 78.7789 126.215 78.7681C123.679 78.3535 121.244 77.3121 119.149 75.816C118.595 75.6757 118.069 75.4253 117.599 75.0074C117.142 74.6016 116.825 74.1335 116.643 73.6314C116.561 73.5427 116.478 73.4527 116.397 73.3619C114.825 72.9762 113.629 71.618 113.829 69.8326C112.833 68.6559 112.467 67.2028 112.804 65.69C112.248 64.7518 112.199 63.5693 112.614 62.5787C111.74 61.5185 111.672 60.0136 112.357 58.814C111.732 57.9259 111.593 56.7487 112.365 55.6968C112.73 55.2001 113.235 54.8863 113.785 54.7349C113.94 54.1627 114.256 53.6307 114.752 53.2203C115.007 53.0093 115.275 52.8527 115.548 52.7359C115.651 52.1451 115.985 51.5848 116.629 51.1441C116.921 50.9443 117.22 50.8154 117.517 50.7437C117.798 50.0487 118.288 49.4393 118.978 49.0435C119.812 48.5663 120.781 48.5024 121.664 48.7525ZM81.956 161.107C82.6024 161.098 83.2241 161.104 83.8427 161.169C83.8674 161.15 83.8924 161.141 83.914 161.144C84.0161 161.169 84.1089 161.191 84.2079 161.215C84.5513 161.265 84.8945 161.336 85.2441 161.438C86.0701 161.682 86.8966 162.068 87.6113 162.546C88.2857 162.997 88.9571 163.468 89.5449 164.03C89.752 164.206 89.9472 164.398 90.1327 164.595C90.4327 164.842 90.7236 165.095 91.0019 165.345C91.342 165.657 91.6728 165.979 91.9882 166.312C92.4831 166.883 92.8699 167.52 93.1484 168.221C93.2597 168.447 93.1242 168.583 92.8954 168.543C92.7933 168.527 92.654 168.453 92.5116 168.354C92.5333 168.407 92.5584 168.453 92.58 168.505C92.7006 168.743 92.5983 168.913 92.3232 168.824C92.3077 168.815 92.2916 168.806 92.2792 168.796C92.4215 169.05 92.5517 169.309 92.663 169.581C92.7837 169.822 92.6755 169.989 92.4032 169.896C92.2609 169.816 92.125 169.723 91.995 169.621C92.0538 169.75 92.1153 169.878 92.1679 170.01C92.2916 170.254 92.1494 170.381 91.9081 170.326C91.7009 170.211 91.5094 170.075 91.33 169.918C91.3022 169.896 91.2766 169.872 91.2519 169.85C91.3321 170.051 91.1812 170.174 90.9804 170.134C90.6958 170.079 90.1602 169.6 90.0302 169.346C90.0209 169.331 90.0151 169.315 90.0058 169.299C89.8542 169.197 89.6901 169.055 89.5663 168.919C89.4673 169.062 89.275 169.167 89.1884 168.994C88.9285 168.286 88.5233 167.681 87.9697 167.171C87.6542 166.711 87.2707 166.319 86.8222 165.995C86.5809 165.791 86.33 165.596 86.0732 165.411C85.6184 165.204 85.1453 165.046 84.6503 164.941C84.5514 164.91 84.4494 164.892 84.3505 164.864C84.1309 164.824 83.9139 164.783 83.6943 164.753C82.8002 164.629 81.9029 164.608 81.0058 164.688C80.845 164.694 80.6901 164.57 80.622 164.428C80.4211 164.438 80.2233 164.447 80.0224 164.465C79.6914 164.478 79.7621 164.011 80.0126 163.964C80.3281 163.906 80.6438 163.863 80.9531 163.826C80.9469 163.798 80.9441 163.767 80.9501 163.743C80.384 163.715 79.8211 163.727 79.2519 163.786C79.0044 163.798 79.2984 163.341 79.4345 163.316C79.4963 163.304 79.5581 163.297 79.623 163.285C79.6169 163.276 79.6133 163.269 79.6103 163.26H79.5956C79.2553 163.276 79.0232 162.735 79.4316 162.661C79.5335 162.642 79.6325 162.63 79.7314 162.612C79.7128 162.559 79.7099 162.513 79.7284 162.469C79.5521 162.466 79.3784 162.466 79.2021 162.466C79.2979 162.46 79.3691 162.047 79.4833 162.031C79.573 162.018 79.6661 162.006 79.7558 161.994C79.762 161.879 79.9355 161.614 80.0097 161.598C80.5975 161.499 81.1729 161.431 81.7421 161.41C81.7978 161.28 81.8787 161.107 81.956 161.107Z" fill="black"/>
<path fill-rule="evenodd" clip-rule="evenodd" d="M157.373 187.258C155.094 187.917 152.647 187.976 150.324 187.295C148.217 186.677 146.054 185.319 144.503 183.521C143.125 181.923 142.233 179.982 142.268 177.91C142.272 177.673 142.357 177.476 142.487 177.323C142.628 177.158 142.824 177.044 143.033 176.995C143.249 176.944 143.478 176.962 143.672 177.051C143.848 177.13 143.999 177.266 144.093 177.464C144.331 177.777 144.569 178.085 144.807 178.384C146.723 180.747 148.579 182.513 151.461 183.146C153.024 183.49 154.585 183.337 156.018 182.813C157.552 182.252 158.938 181.265 160.024 180.002C160.515 179.431 161.095 179.198 161.662 179.194C162.304 179.19 162.939 179.488 163.417 179.964C163.887 180.432 164.202 181.068 164.23 181.734C164.255 182.318 164.065 182.928 163.557 183.473C161.885 185.266 159.718 186.579 157.373 187.258ZM157.302 157.665C159.638 159.083 163.198 162.39 160.685 165.905C157.727 169.004 153.467 165.451 151.368 163.843C149.422 162.598 147.236 165.801 149.041 167.256C164.208 178.468 170.363 158.036 158.484 155.998C157.176 155.773 156.69 157.226 157.302 157.665ZM135.448 151.426C134.697 150.946 133.814 150.782 132.835 151.226C132.07 151.574 130.729 152.732 129.795 154.254C129.156 155.295 128.703 156.517 128.797 157.79C128.819 158.085 128.71 158.303 128.537 158.464C128.401 158.592 128.204 158.685 127.973 158.714C127.777 158.739 127.557 158.717 127.379 158.661C127.039 158.555 126.859 158.335 126.791 158.156C126.138 156.422 126.419 154.487 127.152 152.742C128.141 150.386 129.937 148.413 131.113 147.777C133.126 146.688 135.502 146.638 137.518 147.747C139.234 148.691 140.307 150.216 141.374 151.77C141.601 152.1 141.827 152.428 142.059 152.75C142.526 153.396 142.572 154.036 142.391 154.585C142.191 155.193 141.681 155.706 141.043 155.975C140.453 156.223 139.769 156.258 139.163 156.003C138.652 155.787 138.182 155.367 137.885 154.655C137.385 153.454 136.551 152.13 135.448 151.426V151.426ZM173.583 154.096C173.069 154.364 172.667 154.444 172.096 154.274C171.781 154.179 171.469 153.998 171.225 153.754C170.983 153.512 170.809 153.212 170.741 152.879C170.574 152.056 170.123 151.287 169.481 150.785C168.932 150.356 168.239 150.128 167.471 150.257C166.642 150.395 165.852 150.926 165.307 151.552C165.126 151.761 164.983 151.999 164.84 152.236C164.572 152.678 164.311 153.089 163.941 153.413C163.801 153.537 163.59 153.622 163.385 153.622C163.302 153.622 163.218 153.609 163.137 153.584C162.312 152.756 162.153 152.129 162.18 151.506C162.208 150.854 162.466 150.193 162.882 149.576C163.859 148.13 165.714 146.944 166.965 146.675C168.679 146.308 170.382 146.749 171.746 147.705C173.151 148.689 174.191 150.216 174.516 151.937C174.594 152.352 174.561 152.799 174.403 153.187C174.248 153.566 173.979 153.891 173.583 154.096ZM139.229 136.005C138.2 137.006 136.983 137.161 135.751 137.299C135.066 137.376 134.52 137.438 133.983 137.559C132.505 137.893 131.044 138.394 129.712 139.117C128.319 139.872 126.801 140.783 125.708 141.95C125.449 142.227 125.204 142.519 124.959 142.811C124.735 143.077 124.52 143.333 124.293 143.58C124.032 143.864 123.785 144.162 123.539 144.458C123.386 144.709 123.356 144.77 123.326 144.835C123.28 144.931 123.226 145.039 123.165 145.154C123.081 145.313 122.982 145.486 122.879 145.643C122.708 145.931 122.616 146.01 122.537 146.045C122.405 146.104 122.28 146.133 122.159 146.117C122.045 146.102 121.938 146.048 121.832 145.959C121.304 145.513 121.148 144.782 121.164 144.006C121.188 142.828 121.623 141.524 122.025 140.722C122.957 138.859 124.25 136.923 125.806 135.533C127.58 133.946 129.522 132.744 131.752 131.917C133.137 131.402 134.742 130.93 136.252 130.989C137.338 131.032 138.376 131.355 139.233 132.16C139.759 132.655 140.011 133.358 140.011 134.061C140.011 134.778 139.749 135.499 139.229 136.005ZM175.675 145.169C175.61 145.276 175.52 145.35 175.419 145.394C175.313 145.441 175.195 145.454 175.082 145.435C174.969 145.416 174.862 145.365 174.777 145.287C174.696 145.213 174.634 145.114 174.606 144.992C173.923 141.997 172.597 139.769 169.767 138.332C168.375 137.625 166.774 137.175 165.258 136.817C164.817 136.713 164.352 136.646 163.883 136.577C162.415 136.363 160.935 136.118 159.978 134.932C159.401 134.218 159.158 133.305 159.295 132.47C159.424 131.683 159.884 130.962 160.721 130.53C162.804 129.455 165.392 130.51 167.496 131.409C167.652 131.475 167.805 131.541 167.955 131.604C170.012 132.471 171.888 133.615 173.43 135.252C174.653 136.55 175.787 138.47 176.243 140.444C176.623 142.087 176.534 143.764 175.675 145.169Z" fill="black"/>
</g>
</svg>
