<svg width="92" height="91" viewBox="0 0 92 91" fill="none" xmlns="http://www.w3.org/2000/svg">
<path fill-rule="evenodd" clip-rule="evenodd" d="M54.4494 74.5884C52.1043 75.251 49.5871 75.3103 47.1967 74.6259C45.0286 74.0051 42.8024 72.639 41.2067 70.8313C39.7891 69.2255 38.8711 67.274 38.9071 65.1909C38.9112 64.953 38.9984 64.7544 39.1325 64.6002C39.2769 64.4343 39.4786 64.3204 39.6947 64.2709C39.9169 64.22 40.1517 64.2381 40.3518 64.3267C40.5328 64.407 40.688 64.5432 40.785 64.7424C41.0302 65.0567 41.2745 65.3664 41.5197 65.6674C43.4915 68.0428 45.401 69.818 48.366 70.4548C49.9747 70.8003 51.5814 70.6471 53.0556 70.1199C54.6336 69.5556 56.0601 68.5634 57.178 67.2936C57.6832 66.7198 58.2796 66.4856 58.8628 66.4817C59.5237 66.4772 60.1769 66.7768 60.669 67.2557C61.1527 67.7264 61.4766 68.366 61.506 69.0352C61.5317 69.6224 61.3354 70.2358 60.813 70.7831C59.0923 72.5859 56.8623 73.9066 54.4494 74.5884ZM54.377 44.8374C56.7809 46.2629 60.4437 49.5871 57.8576 53.1213C54.8136 56.2375 50.4309 52.6646 48.2712 51.0487C46.2686 49.7963 44.0186 53.0172 45.8766 54.4795C61.4828 65.7521 67.8161 45.2101 55.5928 43.1612C54.247 42.9355 53.7472 44.3964 54.377 44.8374ZM31.8897 38.5646C31.1171 38.0825 30.2082 37.917 29.2009 38.3641C28.4138 38.7133 27.0332 39.8776 26.0724 41.408C25.4151 42.455 24.949 43.6834 25.0461 44.9628C25.0686 45.2599 24.9561 45.479 24.7785 45.641C24.6384 45.7689 24.4359 45.8629 24.198 45.8923C23.9961 45.9173 23.7701 45.8948 23.5863 45.8388C23.2367 45.7324 23.0517 45.5111 22.9819 45.3305C22.3092 43.5875 22.599 41.6424 23.353 39.8876C24.3705 37.5194 26.2183 35.5357 27.4289 34.8961C29.5005 33.8013 31.9445 33.7509 34.0191 34.8663C35.7851 35.8155 36.8893 37.3481 37.9876 38.9103C38.221 39.2424 38.4527 39.5721 38.6922 39.8959C39.1722 40.5449 39.2199 41.1885 39.0341 41.7404C38.8282 42.3518 38.3031 42.8678 37.6466 43.1378C37.0398 43.3874 36.3356 43.4225 35.7124 43.1661C35.1859 42.9495 34.7028 42.5272 34.3971 41.8106C33.8822 40.6039 33.0244 39.2725 31.8897 38.5646ZM71.13 41.2493C70.6009 41.5183 70.1869 41.5994 69.5999 41.4278C69.2753 41.3327 68.9545 41.1504 68.7034 40.9053C68.4544 40.6625 68.2748 40.3605 68.205 40.0254C68.0333 39.1986 67.5696 38.4246 66.9088 37.92C66.344 37.4887 65.6311 37.2602 64.8403 37.3891C63.9871 37.5281 63.1741 38.062 62.6142 38.6915C62.427 38.9021 62.2803 39.1413 62.1329 39.3789C61.857 39.8233 61.5889 40.2363 61.2084 40.5626C61.0642 40.6868 60.8468 40.7728 60.6364 40.7728C60.5508 40.7728 60.464 40.7592 60.3813 40.734C59.532 39.9024 59.3686 39.2715 59.396 38.6457C59.4247 37.9896 59.6899 37.3252 60.1184 36.7053C61.1236 35.2511 63.0321 34.0589 64.32 33.7888C66.0838 33.4191 67.8354 33.863 69.2397 34.8241C70.6847 35.813 71.7555 37.3483 72.0893 39.0786C72.1696 39.4953 72.1355 39.9451 71.9728 40.3351C71.8139 40.7162 71.5369 41.0426 71.13 41.2493ZM35.7796 23.0612C34.7211 24.0673 33.4683 24.2232 32.201 24.3618C31.4968 24.4395 30.9346 24.5022 30.3814 24.624C28.8609 24.9588 27.3579 25.4632 25.9867 26.1895C24.5534 26.9488 22.9913 27.8645 21.8675 29.0376C21.6003 29.3168 21.3484 29.6097 21.0962 29.9032C20.8661 30.1709 20.6446 30.4286 20.411 30.6771C20.1429 30.9625 19.8882 31.2616 19.6349 31.56C19.4782 31.8117 19.4473 31.8736 19.4158 31.9381C19.3683 32.0349 19.3131 32.1433 19.25 32.2596C19.1636 32.4188 19.0625 32.5932 18.9565 32.7512C18.7802 33.0401 18.6857 33.1197 18.6039 33.1553C18.4683 33.2142 18.3397 33.2432 18.2149 33.2275C18.0979 33.2128 17.9877 33.158 17.8788 33.0682C17.3354 32.6203 17.1751 31.8851 17.1916 31.1048C17.2165 29.9206 17.6642 28.6095 18.0769 27.8036C19.0364 25.9309 20.3673 23.9841 21.9675 22.5864C23.7935 20.9909 25.7912 19.7831 28.0858 18.9508C29.5117 18.4334 31.1627 17.9585 32.7162 18.0185C33.8345 18.0617 34.902 18.386 35.7836 19.1958C36.3249 19.693 36.5848 20.4001 36.5848 21.1068C36.5848 21.8275 36.3149 22.5525 35.7796 23.0612ZM73.2827 32.2745C73.2154 32.3822 73.1222 32.4563 73.0186 32.5009C72.9099 32.5476 72.7886 32.561 72.6721 32.5419C72.5562 32.5228 72.4461 32.4716 72.3587 32.3932C72.2749 32.3182 72.2111 32.2186 72.1826 32.0966C71.4798 29.0853 70.1153 26.8449 67.2029 25.4002C65.7702 24.6895 64.1228 24.2379 62.5632 23.8779C62.11 23.7732 61.6311 23.7054 61.1489 23.6367C59.6374 23.4214 58.1151 23.1748 57.1298 21.9829C56.5361 21.2649 56.2869 20.3467 56.4278 19.507C56.5604 18.7163 57.034 17.9913 57.8949 17.5569C60.0381 16.4757 62.7014 17.5366 64.8657 18.4403C65.0263 18.5073 65.1839 18.5731 65.3381 18.6366C67.4546 19.5083 69.385 20.6588 70.9718 22.3042C72.2308 23.6095 73.3974 25.5392 73.8672 27.5243C74.258 29.1759 74.1661 30.8619 73.2827 32.2745Z" fill="black"/>
</svg>
