<svg width="90" height="92" viewBox="0 0 90 92" fill="none" xmlns="http://www.w3.org/2000/svg">
<path fill-rule="evenodd" clip-rule="evenodd" d="M59.3501 69.0229C58.3224 70.3777 56.4616 71.4153 54.3778 71.9115C52.392 72.3843 50.1973 72.365 48.3034 71.6374L48.1408 71.5721C46.7247 70.9791 45.3654 69.7818 44.8493 68.5322C44.6441 68.0354 44.5746 67.5305 44.7151 67.0593C44.8414 66.6355 45.1376 66.2453 45.6309 65.9102C45.7858 65.805 45.9936 65.7973 46.1915 65.8325C46.4371 65.8762 46.6792 65.992 46.8252 66.1485C47.6355 67.0172 48.8111 67.8642 50.2025 67.8498C51.2761 67.8387 52.1529 67.4113 53.0031 66.9282L53.6005 66.5832C54.177 66.2516 54.7616 65.94 55.423 65.7977C56.607 65.5428 58.043 66.0085 58.9181 66.777C59.2997 67.1121 59.5769 67.506 59.6523 67.9302C59.7155 68.2865 59.6267 68.6583 59.3501 69.0229ZM53.1944 45.3304C55.546 46.7717 59.1292 50.1324 56.5994 53.7054C53.6216 56.8558 49.3341 53.2436 47.2214 51.61C45.2623 50.3439 43.0612 53.6002 44.8788 55.0786C60.1457 66.475 66.3413 45.7073 54.3838 43.6359C53.0673 43.4076 52.5783 44.8846 53.1944 45.3304ZM26.6642 23.1795L27.3398 22.9927L28.0287 22.8053L28.4945 22.6811C31.6943 21.8366 35.2236 21.0935 38.3966 21.4563C39.5539 21.5888 40.4931 22.2454 40.6569 23.4677C40.7949 24.4992 40.1337 25.8299 39.0086 26.0133C35.2818 26.6212 31.4666 26.424 27.7228 27.0507C25.8583 27.3625 24.0082 27.7497 22.1509 28.0985C20.7386 28.3641 19.2793 28.4574 17.8548 28.6722L18.1821 28.718C18.2967 28.7337 18.2681 28.9281 18.155 28.9202C17.6855 28.873 17.2153 28.8656 16.7444 28.8988L16.5425 28.9155C16.2351 28.9592 16.0539 28.5893 16.3279 28.4015C18.0635 27.2143 19.5362 25.9276 21.4794 25.0525C23.1602 24.2957 24.8901 23.6718 26.6642 23.1795ZM55.7941 21.3587C58.2543 18.8512 63.4861 19.8148 66.4128 20.9618C68.0833 21.6168 69.6715 22.4448 70.9944 23.6835L71.1234 23.8054L71.322 23.998C72.215 24.8795 73.2108 26.0924 73.0691 27.3632C73.0476 27.5569 72.943 27.7783 72.7259 27.8172C71.5537 28.0267 70.4024 27.4031 69.3199 27.0278L68.603 26.7798C67.5264 26.4101 66.443 26.0568 65.3331 25.8017C63.9529 25.4852 62.545 25.3021 61.128 25.3204C59.6958 25.3392 58.1574 25.7468 56.7931 25.1734C55.2715 24.5344 54.4827 22.6957 55.7941 21.3587ZM31.4891 41.5822C30.8613 42.2286 30.0324 42.5932 28.9714 42.3763C28.1423 42.2069 26.5638 41.3664 25.3027 40.072C24.44 39.1864 23.7187 38.0798 23.5226 36.798C23.4771 36.5003 23.3204 36.3094 23.1146 36.1892C22.9522 36.0943 22.7379 36.0466 22.5046 36.0705C22.3065 36.0907 22.0961 36.163 21.9336 36.2589C21.6243 36.4413 21.4979 36.7003 21.4722 36.8937C21.2241 38.76 21.9391 40.6118 23.0535 42.1731C24.5576 44.2802 26.7663 45.8243 28.0645 46.1857C30.2861 46.8045 32.627 46.3119 34.3529 44.7529C35.7331 43.5064 36.4405 41.8823 37.0969 40.2124L37.2235 39.8886C37.3711 39.5097 37.5176 39.1336 37.6728 38.7614C37.9839 38.0157 37.8843 37.371 37.5826 36.8686C37.2485 36.312 36.6317 35.9202 35.945 35.7999C35.3103 35.6887 34.6311 35.8103 34.0949 36.2012C33.6419 36.5314 33.2767 37.0546 33.1469 37.8283C32.9358 39.0863 32.4463 40.5297 31.583 41.4821L31.4891 41.5822ZM69.5833 34.3009C69.0656 34.0289 68.6607 33.9469 68.0864 34.1204C67.7689 34.2166 67.4551 34.4009 67.2093 34.6486C66.9658 34.8941 66.7901 35.1995 66.7218 35.5382C66.5539 36.3741 66.1003 37.1567 65.4538 37.6668C64.9013 38.1028 64.2039 38.3339 63.4303 38.2035C62.5956 38.063 61.8003 37.5232 61.2525 36.8868C61.1 36.7094 60.9749 36.5119 60.854 36.3119L60.7817 36.1918C60.5118 35.7426 60.2495 35.325 59.8773 34.9951C59.7362 34.8696 59.5236 34.7827 59.3177 34.7827C59.234 34.7827 59.1491 34.7964 59.0682 34.8218C58.2373 35.6626 58.0776 36.3004 58.1043 36.9331C58.1324 37.5965 58.3918 38.2682 58.811 38.8949C59.7944 40.365 61.6614 41.5703 62.9213 41.8433C64.6467 42.2172 66.3602 41.7684 67.7341 40.7967C69.1477 39.797 70.1951 38.2447 70.5217 36.4955C70.6003 36.0742 70.5669 35.6194 70.4077 35.2251C70.2522 34.8398 69.9813 34.5099 69.5833 34.3009Z" fill="black"/>
</svg>
