<svg width="77" height="76" viewBox="0 0 77 76" fill="none" xmlns="http://www.w3.org/2000/svg">
<path fill-rule="evenodd" clip-rule="evenodd" d="M45.5111 37.4469C47.523 38.6375 50.5886 41.4137 48.4242 44.3654C45.8765 46.9679 42.2084 43.9839 40.4008 42.6344C38.7247 41.5885 36.8415 44.2785 38.3966 45.4997C51.4583 54.9142 56.759 37.7582 46.5287 36.0471C45.4023 35.8585 44.9839 37.0786 45.5111 37.4469ZM27.3331 14.7412L27.8333 14.6559L28.0897 14.6136C29.5881 14.3724 31.3644 14.2111 32.3994 15.3562C32.9799 15.9984 33.1798 17.1921 32.3994 17.8069C31.0267 18.8885 29.5091 18.4693 27.8641 18.5609C26.5085 18.6366 25.2056 18.855 23.8998 19.2184C21.0351 20.0155 18.7008 21.4707 16.2542 23.0685C15.9331 23.2781 15.6054 22.8784 15.7586 22.586C17.171 19.8928 19.9081 17.6805 22.6497 16.332C24.113 15.6122 25.7142 15.0151 27.3331 14.7412ZM40.5849 51.9476C44.963 52.257 54.4507 50.2224 58.3903 53.2743C73.2379 71.3242 14.3742 75.9649 20.7314 55.9955C24.7804 49.5386 34.0937 52.1338 40.5849 51.9476ZM39.8343 62.8441C38.7515 62.7582 37.4375 63.5932 37.1196 64.2383C36.8018 64.8836 36.9246 66.2472 36.9342 66.4835C38.8272 66.6693 40.7367 66.6975 42.6351 66.5764C42.1419 64.9882 42.1259 63.0845 39.8343 62.8441ZM48.575 65.5085C48.2708 63.5372 46.8224 63.0703 45.6501 63.3662C44.4509 63.6687 43.7469 65.0126 43.8231 66.2091C43.8282 66.2916 43.7792 66.3616 43.7469 66.428C45.377 66.2405 46.9919 65.9318 48.575 65.5085ZM35.1483 63.201C34.4656 62.1899 32.8345 61.702 31.7898 61.8802C30.0838 62.2299 29.8819 64.3402 29.8819 64.7703C31.4546 65.3539 33.1244 65.7414 34.7209 66.0501C35.0414 66.1118 35.3627 66.1671 35.6846 66.2192L35.7055 65.963C35.7444 65.4139 35.7732 64.1265 35.1483 63.201ZM54.4459 63.0342C52.6968 60.3996 48.9368 62.2859 49.2475 65.164C49.5816 65.0616 49.9141 64.9544 50.245 64.8421C51.6193 64.3758 53.1268 63.8215 54.4459 63.0342ZM40.6752 53.9568C38.322 53.7505 36.3917 53.8201 34.857 54.0971L34.8105 54.5962C34.6407 56.3265 34.4216 58.0278 35.355 58.724C36.113 59.2895 38.629 59.2355 40.316 58.8262C40.7328 58.724 41.2744 55.1351 40.6752 53.9568ZM44.3139 53.7505C43.9367 55.4559 43.7593 57.5266 44.5166 58.1416C45.3162 58.791 47.8904 58.703 48.5636 58.2704C49.1527 57.8918 49.1377 56.1503 48.919 54.1951C47.6153 53.8961 45.3453 53.7505 44.3139 53.7505ZM33.8163 54.1142L33.0458 54.1209L32.6097 54.1266C31.5068 54.1457 30.317 54.2075 29.1923 54.4465C26.9579 59.1473 35.1177 59.9588 33.8574 54.288L33.8163 54.1142ZM49.957 54.2276L49.9428 54.4939C49.8758 55.8143 49.9202 57.5532 50.6716 58.0226C51.7773 58.7134 53.8536 58.5802 54.9784 55.3849C54.6062 54.4317 50.6586 54.2973 49.957 54.2276ZM28.3018 26.1982C28.7743 26.1982 29.2261 26.3543 29.6377 26.6431C30.0427 26.9275 30.4093 27.3424 30.7147 27.8599C31.2926 28.8393 31.6539 30.1916 31.6539 31.6868C31.6539 33.182 31.2926 34.5342 30.7147 35.5136C30.4093 36.0311 30.0427 36.4461 29.6377 36.7304C29.2261 37.0192 28.7743 37.1754 28.3018 37.1754C27.8294 37.1754 27.3775 37.0192 26.966 36.7304C26.561 36.4461 26.1943 36.0311 25.889 35.5136C25.3111 34.5342 24.9498 33.182 24.9498 31.6868C24.9498 30.1916 25.3111 28.8393 25.889 27.8599C26.1943 27.3424 26.561 26.9275 26.966 26.6431C27.3775 26.3543 27.8294 26.1982 28.3018 26.1982ZM58.2067 26.1982C58.6791 26.1982 59.131 26.3543 59.5425 26.6431C59.9475 26.9275 60.3142 27.3424 60.6195 27.8599C61.1974 28.8393 61.5587 30.1916 61.5587 31.6868C61.5587 33.182 61.1974 34.5342 60.6195 35.5136C60.3142 36.0311 59.9475 36.4461 59.5425 36.7304C59.131 37.0192 58.6791 37.1754 58.2067 37.1754C57.7342 37.1754 57.2824 37.0192 56.8708 36.7304C56.4658 36.4461 56.0992 36.0311 55.7938 35.5136C55.2159 34.5342 54.8546 33.182 54.8546 31.6868C54.8546 30.1916 55.2159 28.8393 55.7938 27.8599C56.0992 27.3424 56.4658 26.9275 56.8708 26.6431C57.2824 26.3543 57.7342 26.1982 58.2067 26.1982ZM54.1379 13.5347L54.5207 13.611L54.7747 13.6635C58.9044 14.5282 64.1399 16.2329 66.073 20.1365C66.1482 20.6998 66.0688 20.8206 66.0042 20.8995L65.9827 20.9257C65.9295 20.9931 65.887 21.0859 65.6362 21.1626C65.5666 21.1465 65.4963 21.1294 65.4252 21.1112C64.5209 20.8805 63.8053 20.5626 63.1126 20.2328L62.3616 19.8726C61.4902 19.4566 60.6111 19.0558 59.6794 18.7599C57.6913 18.1286 55.6462 17.6839 53.5695 17.4464C53.1194 17.3949 52.686 17.2471 52.3441 16.9936C52.0195 16.753 51.7715 16.4199 51.6585 15.9772C51.512 15.4042 51.5541 14.9703 51.8699 14.4534C52.1073 14.0652 52.4471 13.7961 52.8372 13.6416C53.235 13.4841 53.6878 13.447 54.1379 13.5347Z" fill="black"/>
</svg>
