<svg width="76" height="76" viewBox="0 0 76 76" fill="none" xmlns="http://www.w3.org/2000/svg">
<path fill-rule="evenodd" clip-rule="evenodd" d="M44.9201 37.4469C46.9059 38.6375 49.9317 41.4137 47.7954 44.3654C45.2808 46.9679 41.6603 43.9839 39.8762 42.6344C38.2218 41.5885 36.3631 44.2785 37.898 45.4997C50.7901 54.9142 56.0219 37.7582 45.9245 36.0471C44.8127 35.8585 44.3998 37.0786 44.9201 37.4469ZM26.9782 14.7412L27.4719 14.6559L27.7249 14.6136C29.2039 14.3724 30.9572 14.2111 31.9787 15.3562C32.5517 15.9984 32.7489 17.1921 31.9787 17.8069C30.6238 18.8885 29.1259 18.4693 27.5023 18.5609C26.1643 18.6366 24.8783 18.855 23.5895 19.2184C20.762 20.0155 18.458 21.4707 16.0431 23.0685C15.7262 23.2781 15.4028 22.8784 15.554 22.586C16.948 19.8928 19.6496 17.6805 22.3556 16.332C23.7998 15.6122 25.3803 15.0151 26.9782 14.7412ZM40.0579 51.9476C44.3791 52.257 53.7436 50.2224 57.632 53.2743C72.2868 71.3242 14.1876 75.9649 20.4622 55.9955C24.4587 49.5386 33.651 52.1338 40.0579 51.9476ZM39.317 62.8441C38.2483 62.7582 36.9513 63.5932 36.6376 64.2383C36.3239 64.8836 36.4451 66.2472 36.4546 66.4835C38.323 66.6693 40.2077 66.6975 42.0815 66.5764C41.5947 64.9882 41.5789 63.0845 39.317 62.8441ZM47.9442 65.5085C47.6439 63.5372 46.2144 63.0703 45.0573 63.3662C43.8736 63.6687 43.1788 65.0126 43.2541 66.2091C43.2591 66.2916 43.2107 66.3616 43.1788 66.428C44.7877 66.2405 46.3816 65.9318 47.9442 65.5085ZM34.6918 63.201C34.0181 62.1899 32.4081 61.702 31.377 61.8802C29.6932 62.2299 29.4939 64.3402 29.4939 64.7703C31.0462 65.3539 32.6943 65.7414 34.27 66.0501C34.5864 66.1118 34.9035 66.1671 35.2212 66.2192L35.2419 65.963C35.2802 65.4139 35.3087 64.1265 34.6918 63.201ZM53.7389 63.0342C52.0125 60.3996 48.3014 62.2859 48.608 65.164C48.9378 65.0616 49.2659 64.9544 49.5926 64.8421C50.949 64.3758 52.4369 63.8215 53.7389 63.0342ZM40.147 53.9568C37.8244 53.7505 35.9191 53.8201 34.4044 54.0971L34.3585 54.5962C34.1908 56.3265 33.9747 58.0278 34.8959 58.724C35.6441 59.2895 38.1273 59.2355 39.7925 58.8262C40.2038 58.724 40.7384 55.1351 40.147 53.9568ZM43.7385 53.7505C43.3662 55.4559 43.1911 57.5266 43.9386 58.1416C44.7278 58.791 47.2685 58.703 47.9329 58.2704C48.5144 57.8918 48.4996 56.1503 48.2837 54.1951C46.997 53.8961 44.7564 53.7505 43.7385 53.7505ZM33.3772 54.1142L32.6167 54.1209L32.1862 54.1266C31.0977 54.1457 29.9233 54.2075 28.8133 54.4465C26.6079 59.1473 34.6617 59.9588 33.4178 54.288L33.3772 54.1142ZM49.3083 54.2276L49.2942 54.4939C49.2281 55.8143 49.272 57.5532 50.0136 58.0226C51.105 58.7134 53.1543 58.5802 54.2644 55.3849C53.897 54.4317 50.0007 54.2973 49.3083 54.2276ZM27.9343 26.1982C28.4006 26.1982 28.8466 26.3543 29.2528 26.6431C29.6526 26.9275 30.0144 27.3424 30.3159 27.8599C30.8863 28.8393 31.2428 30.1916 31.2428 31.6868C31.2428 33.182 30.8863 34.5342 30.3159 35.5136C30.0144 36.0311 29.6526 36.4461 29.2528 36.7304C28.8466 37.0192 28.4006 37.1754 27.9343 37.1754C27.468 37.1754 27.022 37.0192 26.6159 36.7304C26.2161 36.4461 25.8542 36.0311 25.5528 35.5136C24.9824 34.5342 24.6258 33.182 24.6258 31.6868C24.6258 30.1916 24.9824 28.8393 25.5528 27.8599C25.8542 27.3424 26.2161 26.9275 26.6159 26.6431C27.022 26.3543 27.468 26.1982 27.9343 26.1982ZM57.4508 26.1982C57.9171 26.1982 58.3631 26.3543 58.7693 26.6431C59.169 26.9275 59.5309 27.3424 59.8323 27.8599C60.4027 28.8393 60.7593 30.1916 60.7593 31.6868C60.7593 33.182 60.4027 34.5342 59.8323 35.5136C59.5309 36.0311 59.169 36.4461 58.7693 36.7304C58.3631 37.0192 57.9171 37.1754 57.4508 37.1754C56.9845 37.1754 56.5385 37.0192 56.1323 36.7304C55.7326 36.4461 55.3707 36.0311 55.0692 35.5136C54.4989 34.5342 54.1423 33.182 54.1423 31.6868C54.1423 30.1916 54.4989 28.8393 55.0692 27.8599C55.3707 27.3424 55.7326 26.9275 56.1323 26.6431C56.5385 26.3543 56.9845 26.1982 57.4508 26.1982ZM53.4348 13.5347L53.8127 13.611L54.0634 13.6635C58.1394 14.5282 63.307 16.2329 65.215 20.1365C65.2892 20.6998 65.2108 20.8206 65.147 20.8995L65.1258 20.9257C65.0733 20.9931 65.0314 21.0859 64.7838 21.1626C64.7151 21.1465 64.6457 21.1294 64.5756 21.1112C63.683 20.8805 62.9767 20.5626 62.293 20.2328L61.5517 19.8726C60.6916 19.4566 59.824 19.0558 58.9044 18.7599C56.9421 18.1286 54.9236 17.6839 52.8739 17.4464C52.4296 17.3949 52.0018 17.2471 51.6643 16.9936C51.344 16.753 51.0992 16.4199 50.9877 15.9772C50.843 15.4042 50.8846 14.9703 51.1963 14.4534C51.4307 14.0652 51.766 13.7961 52.1511 13.6416C52.5437 13.4841 52.9906 13.447 53.4348 13.5347Z" fill="black"/>
</svg>
