<svg width="74" height="70" viewBox="0 0 74 70" fill="none" xmlns="http://www.w3.org/2000/svg">
<path fill-rule="evenodd" clip-rule="evenodd" d="M23.9018 44.5506C28.2912 44.0536 32.5458 45.3074 36.8368 45.9394C39.1023 46.2729 41.3707 46.5219 43.6634 46.6145C44.1245 46.6333 44.586 46.6442 45.0474 46.6531C45.0904 46.2741 45.3178 45.9261 45.8104 45.7175C46.8201 45.2905 47.6283 45.0979 48.7369 45.1391C49.7518 45.1764 50.7702 45.2738 51.7695 45.4445C53.5841 45.7549 55.4069 46.4593 56.7342 47.6831C59.8062 50.5149 59.3386 55.0635 56.965 58.1479C52.0609 64.5214 43.1105 64.8172 35.4447 64.734L34.7373 64.7254C27.7574 64.6323 17.7713 65.6033 14.6002 58.1938C13.4341 55.4691 13.596 52.311 15.0238 49.6977C16.7268 46.5807 20.3115 44.9572 23.9018 44.5506ZM45.7046 55.1625L45.642 55.1649C42.4239 55.2806 39.2063 55.362 35.9865 55.4151C36.0828 56.1866 36.1812 56.9584 36.2936 57.7282C36.3817 58.334 36.4763 58.9392 36.5746 59.5436C36.6163 59.7995 36.7691 60.1968 36.7259 60.4503L36.7103 60.5505C36.8756 60.6202 37.0256 60.7326 37.1373 60.8957C37.1761 60.9521 37.2042 61.009 37.2323 61.0656C39.7322 61.084 42.4224 61.0387 44.9708 60.6148L44.9759 60.5631C45.0221 60.2594 45.1576 60.0549 45.3374 59.9147C45.5165 58.9461 45.5002 57.9139 45.5694 56.9529C45.6126 56.3559 45.6594 55.7593 45.7046 55.1625ZM33.5272 55.456C31.2077 55.4929 28.8872 55.5212 26.5681 55.4948L25.5154 55.4796C25.7376 56.5925 25.9796 57.7015 26.1807 58.8218C26.3905 59.9894 25.289 60.7317 24.3357 60.7017C24.4427 60.7181 24.5495 60.735 24.6566 60.749C27.635 61.142 30.7277 61.0378 33.7503 61.0347C33.5877 60.1491 33.6535 59.1499 33.6292 58.4107L33.6246 58.2962C33.5783 57.349 33.5459 56.4025 33.5272 55.456ZM17.7718 55.2518C17.8523 55.8305 18.0089 56.3968 18.2432 56.9241C19.2333 59.1517 21.5032 60.1913 23.9049 60.6291C23.4882 60.4948 23.1573 60.1722 23.0738 59.6197C22.8655 58.246 22.7907 56.8493 22.785 55.4544C21.1112 55.4399 19.4262 55.4065 17.7718 55.2518ZM54.4334 54.7762C53.2417 55.0385 51.8569 54.9183 50.6877 54.9678C49.5924 55.0142 48.4965 55.0547 47.4011 55.0961C47.4528 55.7938 47.5031 56.4913 47.5578 57.1886C47.6283 58.0898 47.6349 59.0422 47.8199 59.9397C50.0244 59.2377 51.9997 58.1119 53.4817 56.3118C53.8509 55.8633 54.1815 55.337 54.4334 54.7762ZM23.3982 48.2056C21.4145 48.6438 19.5371 49.5696 18.5281 51.2633C17.9292 52.2684 17.6657 53.4595 17.7163 54.6334C19.3929 54.4512 21.0984 54.3822 22.7958 54.3251C22.8014 54.0399 22.8086 53.755 22.8178 53.4708L22.8439 52.7422C22.8902 51.3526 22.9134 49.6076 23.3982 48.2056ZM33.666 48.3751L32.7927 48.2836C30.3671 48.0257 27.9428 47.755 25.5171 47.9102C25.1661 47.9328 24.8097 47.9685 24.4525 48.0173C24.8812 49.4608 24.8452 51.1562 25.0243 52.5852C25.0935 53.1377 25.1809 53.6857 25.2777 54.2315L25.6986 54.2132C28.3014 54.0816 30.9068 54.0006 33.5116 53.9042C33.5114 53.4479 33.5141 52.9913 33.522 52.5345L33.5316 52.0777C33.5612 50.911 33.4805 49.5967 33.666 48.3751ZM45.8464 48.1899C43.3059 48.5724 40.6803 48.6538 38.1848 48.6567C37.1881 48.6579 36.1919 48.6008 35.1962 48.5184C35.2611 49.0131 35.2948 49.5134 35.3436 50.0012C35.4419 50.9869 35.5543 51.9711 35.6764 52.9543L35.7854 53.8147C38.9871 53.6793 42.1886 53.5329 45.3896 53.3812L45.8413 53.3586L45.9679 51.7051C46.0541 50.6026 46.1489 49.5003 46.2828 48.4027L46.1824 48.3689C46.0643 48.3237 45.9524 48.2613 45.8464 48.1899ZM46.9497 48.6003C47.0897 50.1593 47.1671 51.7247 47.2701 53.2862L49.3803 53.1811C49.732 53.1632 50.0836 53.1449 50.4353 53.126C51.8027 53.0525 53.5598 52.6661 54.9117 53.0265C55.0149 51.8799 54.6636 50.7627 53.5545 49.9924C51.6073 48.6393 49.1279 49.1211 46.9497 48.6003ZM39.7399 34.6639C42.8823 32.9849 50.7665 31.2688 51.2658 36.5451C51.4954 38.9731 49.5607 40.9849 47.3016 41.8826L47.2168 41.9158C45.0979 42.7285 41.3423 43.6464 39.5087 41.884C37.9826 40.4171 40.0068 37.7869 41.9031 38.9887C42.8776 39.606 44.929 39.1511 46.0164 38.8574L46.0845 38.8389C47.258 38.517 48.8225 37.4871 48.3373 36.139C47.9079 34.9463 46.0806 34.7284 44.9363 34.6897C43.2282 34.6326 41.5659 35.0027 39.8733 35.1231C39.6053 35.1422 39.5225 34.7801 39.7399 34.6639ZM52.7565 26.1797C57.0214 25.9933 59.6744 30.3381 58.6937 33.8981C58.5242 34.5123 57.7877 35.1153 57.0769 35.0463L56.8978 35.0309C56.8069 35.0227 56.7154 35.012 56.6314 34.9904C55.9564 34.816 55.3514 34.1609 55.4005 33.4819L55.4136 33.2841C55.5131 31.6024 55.3178 29.6648 53.1757 29.2575C51.359 28.9121 50.3447 30.5436 50.3232 32.0453C50.3191 32.312 49.998 32.4981 49.7453 32.3547C48.432 31.6091 48.2046 30.1257 48.7062 28.8483C49.342 27.2297 50.9331 26.2592 52.7565 26.1797ZM21.1073 27.1115C24.2109 26.1454 27.5594 27.689 29.0622 30.2491C29.5894 30.3915 30.1158 30.7706 30.0426 31.3512C29.9369 32.1864 29.7776 32.713 29.1569 33.3463C28.1861 34.3371 26.3679 33.8305 25.9644 32.6108L25.9473 32.5557C25.4889 30.9792 23.6289 29.939 21.9346 30.4909C19.9553 31.1354 20.0127 33.0859 18.6243 34.2221C18.4612 34.3557 18.2656 34.3769 18.07 34.2888C16.5954 33.6239 16.8604 31.6228 17.386 30.4775C18.0756 28.9745 19.4158 27.6378 21.1073 27.1115ZM16.8805 18.318C19.3954 15.9236 25.9535 13.6067 27.674 18.0282C28.0017 18.8703 27.304 20.0058 26.3642 20.1805C24.8254 20.4662 23.4601 19.8429 21.9314 19.9547C20.6939 20.0457 19.4031 20.4316 18.4137 21.1469C15.6734 23.1279 15.0707 26.4786 13.1613 29C13.0683 29.1228 12.8878 29.0712 12.8706 28.9264C12.4359 25.2556 14.1258 20.9402 16.8805 18.318ZM49.6799 15.9609C51.3489 15.411 53.2388 15.458 54.9165 15.9459C56.6065 16.4375 58.1579 17.3712 59.3532 18.5911C59.8955 19.1448 60.3974 19.756 60.7999 20.4065C61.0137 20.7513 61.2385 21.4634 61.4815 21.8875C62.7962 22.5957 63.3582 24.2096 62.1811 25.3577L62.1281 25.4081L61.9706 25.5538C61.3379 26.1382 60.3838 26.3914 59.5201 26.158C57.5874 25.6362 57.3526 24.2159 56.6836 22.7084C56.2416 21.7126 55.4844 20.8315 54.5665 20.1843C52.3969 18.6553 48.8396 18.1682 46.2275 18.8887C46.0885 18.9272 45.9251 18.7619 46.0242 18.6419C46.5192 18.0437 46.8044 17.5528 47.4671 17.0702C48.1398 16.5804 48.8739 16.2266 49.6799 15.9609Z" fill="black"/>
</svg>
