<svg width="71" height="71" viewBox="0 0 71 71" fill="none" xmlns="http://www.w3.org/2000/svg">
<path fill-rule="evenodd" clip-rule="evenodd" d="M36.0124 58.3814C34.3609 57.7168 32.8873 56.6084 31.81 55.1923C31.4355 54.7001 31.3384 54.1803 31.4169 53.7048C31.5053 53.1702 31.8259 52.6857 32.2632 52.3607C32.7019 52.0347 33.2506 51.8739 33.7811 51.9559C34.242 52.0271 34.7009 52.276 35.0641 52.7923L35.1399 52.8956C35.7804 53.7502 36.615 54.4514 37.566 54.9034C38.4826 55.3391 39.5077 55.5424 40.5685 55.4242C42.5889 55.1991 43.9814 54.1213 45.4615 52.6578C45.645 52.473 45.8286 52.2824 46.0131 52.0888C46.1296 51.9133 46.2912 51.8005 46.4707 51.7413C46.67 51.6755 46.8955 51.6793 47.102 51.7503C47.3012 51.8189 47.4792 51.9488 47.5986 52.1217C47.7121 52.2861 47.7764 52.4891 47.7555 52.7226C47.6201 54.2393 46.8161 55.5929 45.6742 56.6558C44.4059 57.8362 42.7247 58.6529 41.1419 58.9393C39.3981 59.2548 37.6213 59.0288 36.0124 58.3814ZM41.9645 34.983C43.8197 36.0953 46.6464 38.6889 44.6507 41.4463C42.3015 43.8776 38.9192 41.0899 37.2524 39.8292C35.7069 38.8521 33.9705 41.3651 35.4044 42.506C47.4483 51.3011 52.336 35.2738 42.9028 33.6753C41.8642 33.4991 41.4784 34.6389 41.9645 34.983ZM20.3817 24.752C20.5867 22.2425 24.4616 21.6726 24.8471 24.1559C25.1923 26.3804 24.7859 28.4239 23.7701 30.4267C22.7994 32.3401 20.3597 31.4474 20.1752 29.7051C19.9279 27.3696 20.2542 26.3131 20.3817 24.752ZM49.8783 23.641C50.4186 22.9431 51.1986 22.4667 52.1331 22.736C55.053 23.5775 54.1924 27.6662 53.1669 29.6564C52.6098 30.7371 50.8087 31.0112 49.9948 30.0596C48.6681 28.5078 48.0328 25.4088 49.7194 23.8802C49.7651 23.8012 49.8159 23.7215 49.8783 23.641ZM23.7289 13.7711L24.1902 13.6914C25.617 13.448 27.3911 13.2141 28.4004 14.3456C28.9358 14.9456 29.12 16.0607 28.4004 16.635C27.1347 17.6455 25.7354 17.2539 24.2186 17.3395C22.9686 17.4102 21.7672 17.6143 20.5632 17.9538C17.9217 18.6984 15.7693 20.0578 13.5133 21.5505C13.2173 21.7463 12.9151 21.3729 13.0563 21.0998C14.3587 18.5838 16.8825 16.517 19.4105 15.2572C20.7597 14.5848 22.2362 14.0269 23.7289 13.7711ZM47.2167 12.644L47.5697 12.7153C51.4114 13.5073 56.4026 15.0895 58.2218 18.8114C58.2911 19.3377 58.2179 19.4505 58.1583 19.5242L58.1385 19.5487C58.0894 19.6116 58.0503 19.6984 57.819 19.77C57.7548 19.7549 57.69 19.739 57.6245 19.722C56.7906 19.5065 56.1308 19.2095 55.4921 18.9014L54.7995 18.5649C53.996 18.1763 53.1855 17.8018 52.3264 17.5254C50.4932 16.9356 48.6075 16.5201 46.6926 16.2983C46.2776 16.2502 45.8779 16.1121 45.5626 15.8753C45.2634 15.6505 45.0347 15.3393 44.9305 14.9257C44.7954 14.3904 44.8342 13.9851 45.1254 13.5022C45.3443 13.1396 45.6576 12.8882 46.0174 12.7438C46.3841 12.5967 46.8016 12.562 47.2167 12.644Z" fill="black"/>
</svg>
