<svg width="72" height="71" viewBox="0 0 72 71" fill="none" xmlns="http://www.w3.org/2000/svg">
<path fill-rule="evenodd" clip-rule="evenodd" d="M38.8364 60.8058C40.7196 60.5509 42.7446 59.5135 44.5434 60.3566C45.3842 60.7506 45.7833 62.0981 45.2148 62.8472C44.3465 63.9911 43.4501 64.1804 42.0408 64.2904C40.9842 64.3728 39.9219 64.3789 38.8681 64.2604L38.6 64.2285C36.7196 63.9924 34.7652 63.4819 33.3084 62.2527C33.0104 62.0012 33.1631 61.4579 33.5455 61.3794C35.2755 61.0254 37.0852 61.0431 38.8364 60.8058ZM36.62 56.5881C36.6192 56.5733 36.6424 56.5733 36.6431 56.5881C36.6887 57.635 36.9912 58.6054 37.5502 59.5011C37.558 59.5139 37.5378 59.5253 37.5301 59.5127C36.9707 58.6164 36.6656 57.6359 36.62 56.5881ZM42.5561 34.983C44.4374 36.0953 47.304 38.6889 45.2801 41.4463C42.8978 43.8776 39.4679 41.09 37.7777 39.8292C36.2104 38.8521 34.4495 41.3651 35.9036 42.506C48.1172 51.3011 53.0737 35.2739 43.5076 33.6753C42.4544 33.4991 42.0632 34.6389 42.5561 34.983ZM52.1851 22.5358C52.6269 22.5358 53.0494 22.6816 53.4342 22.9515C53.8129 23.2171 54.1557 23.6047 54.4413 24.0882C54.9817 25.0031 55.3195 26.2664 55.3195 27.6633C55.3195 29.0601 54.9817 30.3234 54.4413 31.2383C54.1557 31.7218 53.8129 32.1094 53.4342 32.3751C53.0494 32.6449 52.6269 32.7908 52.1851 32.7908C51.7433 32.7908 51.3208 32.6449 50.936 32.3751C50.5573 32.1094 50.2145 31.7218 49.9289 31.2383C49.3885 30.3234 49.0507 29.0601 49.0507 27.6633C49.0507 26.2664 49.3885 25.0031 49.9289 24.0882C50.2145 23.6047 50.5573 23.2171 50.936 22.9515C51.3208 22.6816 51.7433 22.5358 52.1851 22.5358ZM31.7268 23.9605L31.8931 23.9298C32.8634 23.7582 33.3538 23.8159 34.1987 24.4592C34.8338 24.9426 34.6519 25.8947 34.1987 26.4031C33.4094 27.289 32.6381 27.1321 31.5569 27.1659L31.4809 27.1686C30.5798 27.2042 29.6779 27.2292 28.776 27.2425C28.5294 27.2464 28.2825 27.2454 28.0359 27.2469C28.062 29.4668 26.7461 31.1569 25.0131 32.442C23.893 33.2729 22.4762 32.3143 22.0766 31.28C21.746 30.4242 21.675 29.3718 21.8464 28.4347C21.9098 28.0893 22.0422 27.7144 22.2446 27.3947L22.3015 27.3089L22.2923 27.1863C22.2901 27.156 22.2923 27.1267 22.2913 27.0964C20.6825 27.0013 19.083 26.8444 17.4841 26.6472L16.9511 26.58C15.5863 26.4043 13.5821 26.3478 12.4776 25.4845C12.4428 25.4568 12.4552 25.3965 12.4921 25.3773C13.0992 25.0593 13.7152 25.0773 14.3942 25.048L14.4916 25.0434C15.2301 25.0064 15.9668 24.9754 16.7049 24.9508L17.4434 24.9283C19.3323 24.8757 21.223 24.7866 23.1102 24.6889C23.4383 24.672 23.7664 24.6518 24.0951 24.6322C24.4386 24.4922 24.8038 24.4083 25.1646 24.3928C25.4636 24.3797 25.7511 24.4199 26.0214 24.5035C26.7107 24.4517 27.3995 24.3953 28.0879 24.3347L28.776 24.2726C29.7472 24.1827 30.7681 24.1435 31.7268 23.9605ZM43.6525 7.3227C45.7286 6.3304 48.2528 6.30617 50.3909 7.12739L50.5326 7.1832C52.692 8.05481 55.2939 10.0681 54.7306 12.5757C54.2151 14.871 50.5137 14.4821 50.3261 12.3126C49.131 10.7021 46.4511 10.3488 44.7664 11.3729C43.7447 11.9942 43.0434 13.0403 42.5641 14.0953C42.1555 14.9939 42.0785 16.1034 41.4509 16.8861C41.4305 16.9116 41.3897 16.9162 41.36 16.9094C39.4885 16.4882 39.4452 13.5957 39.7643 12.1926C40.2279 10.1528 41.716 8.24885 43.6525 7.3227Z" fill="black"/>
</svg>
