<svg width="91" height="90" viewBox="0 0 91 90" fill="none" xmlns="http://www.w3.org/2000/svg">
<path fill-rule="evenodd" clip-rule="evenodd" d="M49.0848 77.078C51.4649 76.7549 54.0243 75.4399 56.2977 76.5085C57.3604 77.008 57.8648 78.7161 57.1463 79.6656C56.0489 81.1157 54.916 81.3556 53.1347 81.4951C51.7993 81.5995 50.4567 81.6072 49.1247 81.457L48.7859 81.4165C46.4093 81.1173 43.9392 80.4702 42.0979 78.9121C41.7213 78.5933 41.9143 77.9046 42.3977 77.8051C44.5842 77.3563 46.8715 77.3787 49.0848 77.078ZM46.2834 71.7316C46.2825 71.7129 46.3117 71.7129 46.3127 71.7316C46.3703 73.0586 46.7526 74.2888 47.4592 75.4241C47.4689 75.4403 47.4434 75.4548 47.4337 75.4388C46.7268 74.3026 46.341 73.0598 46.2834 71.7316ZM53.786 44.3449C56.1638 45.7548 59.7868 49.0424 57.2289 52.5378C54.2179 55.6197 49.8829 52.086 47.7466 50.4879C45.7658 49.2493 43.5402 52.4348 45.378 53.8811C60.8146 65.0298 67.079 44.7135 54.9887 42.6872C53.6575 42.4639 53.1631 43.9087 53.786 44.3449ZM65.956 28.5666C66.5143 28.5666 67.0484 28.7515 67.5347 29.0936C68.0133 29.4303 68.4467 29.9216 68.8076 30.5345C69.4905 31.6943 69.9175 33.2957 69.9175 35.0663C69.9175 36.8369 69.4905 38.4382 68.8076 39.598C68.4467 40.2109 68.0133 40.7023 67.5347 41.039C67.0484 41.3811 66.5143 41.5659 65.956 41.5659C65.3977 41.5659 64.8636 41.3811 64.3773 41.039C63.8986 40.7023 63.4653 40.2109 63.1044 39.598C62.4215 38.4382 61.9945 36.8369 61.9945 35.0663C61.9945 33.2957 62.4215 31.6943 63.1044 30.5345C63.4653 29.9216 63.8986 29.4303 64.3773 29.0936C64.8636 28.7515 65.3977 28.5666 65.956 28.5666ZM40.099 30.3726L40.3092 30.3338C41.5356 30.1162 42.1553 30.1894 43.2232 31.0048C44.0258 31.6176 43.796 32.8244 43.2232 33.4689C42.2256 34.5919 41.2508 34.393 39.8842 34.4358L39.7882 34.4392C38.6493 34.4844 37.5094 34.516 36.3696 34.5329C36.0578 34.5378 35.7458 34.5366 35.4341 34.5384C35.4671 37.3524 33.8039 39.4949 31.6136 41.1238C30.1979 42.1771 28.4072 40.9619 27.9022 39.6509C27.4843 38.566 27.3946 37.232 27.6112 36.0442C27.6915 35.6063 27.8587 35.1311 28.1145 34.7258L28.1865 34.6171L28.1748 34.4616C28.172 34.4233 28.1748 34.3861 28.1736 34.3477C26.1403 34.2272 24.1187 34.0282 22.0978 33.7783L21.4242 33.6931C19.6992 33.4704 17.166 33.3988 15.7702 32.3044C15.7261 32.2694 15.7418 32.1929 15.7885 32.1686C16.5558 31.7655 17.3343 31.7883 18.1925 31.7511L18.3157 31.7454C19.249 31.6984 20.1801 31.6591 21.1129 31.628L22.0464 31.5995C24.4338 31.5328 26.8234 31.4198 29.2086 31.296C29.6233 31.2745 30.038 31.249 30.4533 31.2241C30.8875 31.0466 31.3491 30.9403 31.8051 30.9206C32.1829 30.904 32.5463 30.955 32.8879 31.061C33.7591 30.9953 34.6298 30.9238 35.4998 30.8469L36.3696 30.7683C37.597 30.6543 38.8873 30.6045 40.099 30.3726ZM55.1718 9.28247C57.7957 8.02462 60.986 7.99391 63.6883 9.0349L63.8674 9.10564C66.5966 10.2105 69.8852 12.7625 69.1732 15.9412C68.5217 18.8507 63.8436 18.3577 63.6065 15.6077C62.096 13.5662 58.7088 13.1184 56.5796 14.4165C55.2883 15.204 54.4019 16.5301 53.7961 17.8675C53.2797 19.0065 53.1824 20.413 52.3892 21.4051C52.3634 21.4374 52.3118 21.4432 52.2743 21.4346C49.9089 20.9008 49.8541 17.2341 50.2575 15.4556C50.8435 12.8699 52.7243 10.4565 55.1718 9.28247Z" fill="black"/>
</svg>
